<?xml version="1.0" encoding="UTF-8" standalone="no"?>
<!DOCTYPE svg PUBLIC "-//W3C//DTD SVG 1.1//EN"
 "http://www.w3.org/Graphics/SVG/1.1/DTD/svg11.dtd">
<!-- Generated by graphviz version 2.43.0 (0)
 -->
<!-- Title: G Pages: 1 -->
<svg width="2344pt" height="655pt"
 viewBox="0.00 0.00 2344.00 655.00" xmlns="http://www.w3.org/2000/svg" xmlns:xlink="http://www.w3.org/1999/xlink">
<g id="graph0" class="graph" transform="scale(1 1) rotate(0) translate(4 651)">
<title>G</title>
<polygon fill="white" stroke="transparent" points="-4,4 -4,-651 2340,-651 2340,4 -4,4"/>
<!-- n1 -->
<g id="node1" class="node">
<title>n1</title>
<g id="a_node1"><a xlink:href="https://sqaaas.eosc-synergy.eu/SQAaaS" xlink:title="ex:SQAaaS">
<polygon fill="#fed37f" stroke="black" points="399.64,-634.56 323.5,-647 247.36,-634.56 247.43,-614.44 399.57,-614.44 399.64,-634.56"/>
<text text-anchor="middle" x="323.5" y="-625.3" font-family="Times,serif" font-size="14.00">ex:SQAaaS</text>
</a>
</g>
</g>
<!-- ann1 -->
<g id="node2" class="node">
<title>ann1</title>
<polygon fill="none" stroke="gray" points="388.5,-564 220.5,-564 220.5,-528 394.5,-528 394.5,-558 388.5,-564"/>
<polyline fill="none" stroke="gray" points="388.5,-564 388.5,-558 "/>
<polyline fill="none" stroke="gray" points="394.5,-558 388.5,-558 "/>
<g id="a_node2_0"><a xlink:href="http://www.w3.org/ns/prov#type" xlink:title="&lt;TABLE&gt;">
<text text-anchor="start" x="230.5" y="-550" font-family="Times,serif" font-size="10.00">prov:type</text>
</a>
</g>
<text text-anchor="start" x="281.5" y="-550" font-family="Times,serif" font-size="10.00">prov:SoftwareAgent</text>
<g id="a_node2_1"><a xlink:href="http://www.w3.org/2001/XMLSchema#type" xlink:title="&lt;TABLE&gt;">
<text text-anchor="start" x="230.5" y="-537" font-family="Times,serif" font-size="10.00">xsd:type</text>
</a>
</g>
<text text-anchor="start" x="281.5" y="-537" font-family="Times,serif" font-size="10.00">xsd:QName</text>
</g>
<!-- ann1&#45;&gt;n1 -->
<g id="edge1" class="edge">
<title>ann1&#45;&gt;n1</title>
<path fill="none" stroke="gray" stroke-dasharray="5,2" d="M310.89,-564.18C313.85,-579.13 318.07,-600.52 320.8,-614.33"/>
</g>
<!-- n2 -->
<g id="node3" class="node">
<title>n2</title>
<g id="a_node3"><a xlink:href="https://sqaaas.eosc-synergy.eu/repository1" xlink:title="ex:repository1">
<ellipse fill="#fffc87" stroke="#808080" cx="490.5" cy="-546" rx="77.99" ry="18"/>
<text text-anchor="middle" x="490.5" y="-542.3" font-family="Times,serif" font-size="14.00">ex:repository1</text>
</a>
</g>
</g>
<!-- n2&#45;&gt;n1 -->
<g id="edge21" class="edge">
<title>n2&#45;&gt;n1</title>
<path fill="none" stroke="#fed37f" d="M458.3,-562.62C430.42,-576.14 390.08,-595.71 360.8,-609.91"/>
<polygon fill="#fed37f" stroke="#fed37f" points="359.18,-606.8 351.71,-614.32 362.24,-613.1 359.18,-606.8"/>
<text text-anchor="middle" x="459.5" y="-585" font-family="Times,serif" font-size="10.00">wasAttributedTo</text>
</g>
<!-- ann2 -->
<g id="node4" class="node">
<title>ann2</title>
<polygon fill="none" stroke="gray" points="486,-491 99,-491 99,-377 492,-377 492,-485 486,-491"/>
<polyline fill="none" stroke="gray" points="486,-491 486,-485 "/>
<polyline fill="none" stroke="gray" points="492,-485 486,-485 "/>
<g id="a_node4_2"><a xlink:href="http://www.w3.org/ns/prov#type" xlink:title="&lt;TABLE&gt;">
<text text-anchor="start" x="109.5" y="-477" font-family="Times,serif" font-size="10.00">prov:type</text>
</a>
</g>
<text text-anchor="start" x="195.5" y="-477" font-family="Times,serif" font-size="10.00">document</text>
<g id="a_node4_3"><a xlink:href="https://sqaaas.eosc-synergy.eu/avatar_url" xlink:title="&lt;TABLE&gt;">
<text text-anchor="start" x="109.5" y="-464" font-family="Times,serif" font-size="10.00">ex:avatar_url</text>
</a>
</g>
<text text-anchor="start" x="195.5" y="-464" font-family="Times,serif" font-size="10.00">https://avatars.githubusercontent.com/u/134686857?v=4</text>
<g id="a_node4_4"><a xlink:href="https://sqaaas.eosc-synergy.eu/badge_status" xlink:title="&lt;TABLE&gt;">
<text text-anchor="start" x="109.5" y="-451" font-family="Times,serif" font-size="10.00">ex:badge_status</text>
</a>
</g>
<text text-anchor="start" x="195.5" y="-451" font-family="Times,serif" font-size="10.00">no_badge</text>
<g id="a_node4_5"><a xlink:href="https://sqaaas.eosc-synergy.eu/commit_id" xlink:title="&lt;TABLE&gt;">
<text text-anchor="start" x="109.5" y="-438" font-family="Times,serif" font-size="10.00">ex:commit_id</text>
</a>
</g>
<text text-anchor="start" x="195.5" y="-438" font-family="Times,serif" font-size="10.00">d02aa00396fd15bed2e8eede53f2123dc08e0717</text>
<g id="a_node4_6"><a xlink:href="https://sqaaas.eosc-synergy.eu/is_main_repo" xlink:title="&lt;TABLE&gt;">
<text text-anchor="start" x="109.5" y="-425" font-family="Times,serif" font-size="10.00">ex:is_main_repo</text>
</a>
</g>
<text text-anchor="start" x="195.5" y="-425" font-family="Times,serif" font-size="10.00">True</text>
<g id="a_node4_7"><a xlink:href="https://sqaaas.eosc-synergy.eu/name" xlink:title="&lt;TABLE&gt;">
<text text-anchor="start" x="109.5" y="-412" font-family="Times,serif" font-size="10.00">ex:name</text>
</a>
</g>
<text text-anchor="start" x="195.5" y="-412" font-family="Times,serif" font-size="10.00">HPCI&#45;Lab/yProv</text>
<g id="a_node4_8"><a xlink:href="https://sqaaas.eosc-synergy.eu/tag" xlink:title="&lt;TABLE&gt;">
<text text-anchor="start" x="109.5" y="-399" font-family="Times,serif" font-size="10.00">ex:tag</text>
</a>
</g>
<text text-anchor="start" x="195.5" y="-399" font-family="Times,serif" font-size="10.00">main</text>
<g id="a_node4_9"><a xlink:href="https://sqaaas.eosc-synergy.eu/url" xlink:title="&lt;TABLE&gt;">
<text text-anchor="start" x="109.5" y="-386" font-family="Times,serif" font-size="10.00">ex:url</text>
</a>
</g>
<text text-anchor="start" x="195.5" y="-386" font-family="Times,serif" font-size="10.00">https://github.com/HPCI&#45;Lab/yProv</text>
</g>
<!-- ann2&#45;&gt;n2 -->
<g id="edge2" class="edge">
<title>ann2&#45;&gt;n2</title>
<path fill="none" stroke="gray" stroke-dasharray="5,2" d="M395,-491.13C419.79,-505.11 444.4,-519 462.43,-529.17"/>
</g>
<!-- n3 -->
<g id="node5" class="node">
<title>n3</title>
<g id="a_node5"><a xlink:href="https://sqaaas.eosc-synergy.eu/output1" xlink:title="ex:output1">
<ellipse fill="#fffc87" stroke="#808080" cx="1422.5" cy="-91" rx="61.19" ry="18"/>
<text text-anchor="middle" x="1422.5" y="-87.3" font-family="Times,serif" font-size="14.00">ex:output1</text>
</a>
</g>
</g>
<!-- b2 -->
<g id="node26" class="node">
<title>b2</title>
<ellipse fill="gray" stroke="gray" cx="1422.5" cy="-180.5" rx="1.8" ry="1.8"/>
</g>
<!-- n3&#45;&gt;b2 -->
<g id="edge24" class="edge">
<title>n3&#45;&gt;b2</title>
<path fill="none" stroke="black" d="M1422.5,-109.29C1422.5,-132.4 1422.5,-171.29 1422.5,-178.37"/>
<text text-anchor="middle" x="1466.5" y="-130" font-family="Times,serif" font-size="10.00">wasDerivedFrom</text>
</g>
<!-- ann3 -->
<g id="node6" class="node">
<title>ann3</title>
<polygon fill="none" stroke="gray" points="1490.5,-36 1348.5,-36 1348.5,0 1496.5,0 1496.5,-30 1490.5,-36"/>
<polyline fill="none" stroke="gray" points="1490.5,-36 1490.5,-30 "/>
<polyline fill="none" stroke="gray" points="1496.5,-30 1490.5,-30 "/>
<g id="a_node6_10"><a xlink:href="http://www.w3.org/ns/prov#type" xlink:title="&lt;TABLE&gt;">
<text text-anchor="start" x="1358.5" y="-22" font-family="Times,serif" font-size="10.00">prov:type</text>
</a>
</g>
<text text-anchor="start" x="1434.5" y="-22" font-family="Times,serif" font-size="10.00">document</text>
<g id="a_node6_11"><a xlink:href="https://sqaaas.eosc-synergy.eu/badge_won" xlink:title="&lt;TABLE&gt;">
<text text-anchor="start" x="1358.5" y="-9" font-family="Times,serif" font-size="10.00">ex:badge_won</text>
</a>
</g>
<text text-anchor="start" x="1434.5" y="-9" font-family="Times,serif" font-size="10.00">no_badge</text>
</g>
<!-- ann3&#45;&gt;n3 -->
<g id="edge3" class="edge">
<title>ann3&#45;&gt;n3</title>
<path fill="none" stroke="gray" stroke-dasharray="5,2" d="M1422.5,-36.19C1422.5,-47.35 1422.5,-61.84 1422.5,-72.97"/>
</g>
<!-- n4 -->
<g id="node7" class="node">
<title>n4</title>
<g id="a_node7"><a xlink:href="https://sqaaas.eosc-synergy.eu/assessment1" xlink:title="ex:assessment1">
<ellipse fill="#fffc87" stroke="#808080" cx="1167.5" cy="-286" rx="84.49" ry="18"/>
<text text-anchor="middle" x="1167.5" y="-282.3" font-family="Times,serif" font-size="14.00">ex:assessment1</text>
</a>
</g>
</g>
<!-- n5 -->
<g id="node9" class="node">
<title>n5</title>
<g id="a_node9"><a xlink:href="https://sqaaas.eosc-synergy.eu/qc_QC.Acc" xlink:title="ex:qc_QC.Acc">
<polygon fill="#9fb1fc" stroke="#0000ff" points="622.5,-452 510.5,-452 510.5,-416 622.5,-416 622.5,-452"/>
<text text-anchor="middle" x="566.5" y="-430.3" font-family="Times,serif" font-size="14.00">ex:qc_QC.Acc</text>
</a>
</g>
</g>
<!-- n4&#45;&gt;n5 -->
<g id="edge13" class="edge">
<title>n4&#45;&gt;n5</title>
<path fill="none" stroke="darkgreen" d="M1140.04,-303.12C1122.05,-312.81 1097.65,-324.32 1074.5,-330 993.26,-349.92 778.16,-322.48 698.5,-348 658.62,-360.77 619.07,-388.83 593.81,-409.22"/>
<polygon fill="darkgreen" stroke="darkgreen" points="591.3,-406.75 585.81,-415.81 595.76,-412.15 591.3,-406.75"/>
<text text-anchor="middle" x="742.5" y="-351" font-family="Times,serif" font-size="10.00" fill="darkgreen">wasGeneratedBy</text>
</g>
<!-- n6 -->
<g id="node11" class="node">
<title>n6</title>
<g id="a_node11"><a xlink:href="https://sqaaas.eosc-synergy.eu/qc_QC.Doc" xlink:title="ex:qc_QC.Doc">
<polygon fill="#9fb1fc" stroke="#0000ff" points="911.5,-452 797.5,-452 797.5,-416 911.5,-416 911.5,-452"/>
<text text-anchor="middle" x="854.5" y="-430.3" font-family="Times,serif" font-size="14.00">ex:qc_QC.Doc</text>
</a>
</g>
</g>
<!-- n4&#45;&gt;n6 -->
<g id="edge14" class="edge">
<title>n4&#45;&gt;n6</title>
<path fill="none" stroke="darkgreen" d="M1139.1,-303.07C1121.14,-312.47 1097.12,-323.71 1074.5,-330 1003.85,-349.64 973.06,-309.75 910.5,-348 888.57,-361.41 873.49,-387.01 864.55,-406.63"/>
<polygon fill="darkgreen" stroke="darkgreen" points="861.26,-405.4 860.54,-415.97 867.7,-408.16 861.26,-405.4"/>
<text text-anchor="middle" x="954.5" y="-351" font-family="Times,serif" font-size="10.00" fill="darkgreen">wasGeneratedBy</text>
</g>
<!-- n7 -->
<g id="node13" class="node">
<title>n7</title>
<g id="a_node13"><a xlink:href="https://sqaaas.eosc-synergy.eu/qc_QC.Lic" xlink:title="ex:qc_QC.Lic">
<polygon fill="#9fb1fc" stroke="#0000ff" points="1037.5,-452 929.5,-452 929.5,-416 1037.5,-416 1037.5,-452"/>
<text text-anchor="middle" x="983.5" y="-430.3" font-family="Times,serif" font-size="14.00">ex:qc_QC.Lic</text>
</a>
</g>
</g>
<!-- n4&#45;&gt;n7 -->
<g id="edge15" class="edge">
<title>n4&#45;&gt;n7</title>
<path fill="none" stroke="darkgreen" d="M1136.61,-302.82C1118.76,-311.58 1095.71,-322.22 1074.5,-330 1046.36,-340.32 1030.98,-327.09 1009.5,-348 993.99,-363.1 987.67,-387.17 985.13,-405.84"/>
<polygon fill="darkgreen" stroke="darkgreen" points="981.64,-405.52 984.05,-415.84 988.6,-406.28 981.64,-405.52"/>
<text text-anchor="middle" x="1053.5" y="-351" font-family="Times,serif" font-size="10.00" fill="darkgreen">wasGeneratedBy</text>
</g>
<!-- n8 -->
<g id="node15" class="node">
<title>n8</title>
<g id="a_node15"><a xlink:href="https://sqaaas.eosc-synergy.eu/qc_QC.Ver" xlink:title="ex:qc_QC.Ver">
<polygon fill="#9fb1fc" stroke="#0000ff" points="1461,-452 1350,-452 1350,-416 1461,-416 1461,-452"/>
<text text-anchor="middle" x="1405.5" y="-430.3" font-family="Times,serif" font-size="14.00">ex:qc_QC.Ver</text>
</a>
</g>
</g>
<!-- n4&#45;&gt;n8 -->
<g id="edge16" class="edge">
<title>n4&#45;&gt;n8</title>
<path fill="none" stroke="darkgreen" d="M1201.84,-302.53C1233.52,-317.02 1278.03,-337.89 1294.5,-348 1324.4,-366.36 1355.92,-391.08 1377.7,-409.13"/>
<polygon fill="darkgreen" stroke="darkgreen" points="1375.63,-411.96 1385.54,-415.69 1380.12,-406.59 1375.63,-411.96"/>
<text text-anchor="middle" x="1353.5" y="-351" font-family="Times,serif" font-size="10.00" fill="darkgreen">wasGeneratedBy</text>
</g>
<!-- n9 -->
<g id="node17" class="node">
<title>n9</title>
<g id="a_node17"><a xlink:href="https://sqaaas.eosc-synergy.eu/qc_QC.Met" xlink:title="ex:qc_QC.Met">
<polygon fill="#9fb1fc" stroke="#0000ff" points="1625.5,-452 1509.5,-452 1509.5,-416 1625.5,-416 1625.5,-452"/>
<text text-anchor="middle" x="1567.5" y="-430.3" font-family="Times,serif" font-size="14.00">ex:qc_QC.Met</text>
</a>
</g>
</g>
<!-- n4&#45;&gt;n9 -->
<g id="edge17" class="edge">
<title>n4&#45;&gt;n9</title>
<path fill="none" stroke="darkgreen" d="M1196.35,-303.14C1214.28,-312.45 1238.11,-323.56 1260.5,-330 1321.21,-347.46 1340.49,-331.61 1401.5,-348 1433.63,-356.63 1440.7,-362.21 1470.5,-377 1490.97,-387.16 1513.09,-399.79 1531.02,-410.49"/>
<polygon fill="darkgreen" stroke="darkgreen" points="1529.62,-413.73 1539.99,-415.88 1533.23,-407.73 1529.62,-413.73"/>
<text text-anchor="middle" x="1476.5" y="-351" font-family="Times,serif" font-size="10.00" fill="darkgreen">wasGeneratedBy</text>
</g>
<!-- n10 -->
<g id="node19" class="node">
<title>n10</title>
<g id="a_node19"><a xlink:href="https://sqaaas.eosc-synergy.eu/qc_QC.Sec" xlink:title="ex:qc_QC.Sec">
<polygon fill="#9fb1fc" stroke="#0000ff" points="779,-452 666,-452 666,-416 779,-416 779,-452"/>
<text text-anchor="middle" x="722.5" y="-430.3" font-family="Times,serif" font-size="14.00">ex:qc_QC.Sec</text>
</a>
</g>
</g>
<!-- n4&#45;&gt;n10 -->
<g id="edge18" class="edge">
<title>n4&#45;&gt;n10</title>
<path fill="none" stroke="darkgreen" d="M1139.6,-303.19C1121.63,-312.77 1097.42,-324.15 1074.5,-330 1016.67,-344.77 860.78,-323.16 806.5,-348 778.27,-360.92 754.35,-387.77 739.34,-407.86"/>
<polygon fill="darkgreen" stroke="darkgreen" points="736.48,-405.84 733.46,-415.99 742.15,-409.93 736.48,-405.84"/>
<text text-anchor="middle" x="850.5" y="-351" font-family="Times,serif" font-size="10.00" fill="darkgreen">wasGeneratedBy</text>
</g>
<!-- n11 -->
<g id="node21" class="node">
<title>n11</title>
<g id="a_node21"><a xlink:href="https://sqaaas.eosc-synergy.eu/qc_QC.Sty" xlink:title="ex:qc_QC.Sty">
<polygon fill="#9fb1fc" stroke="#0000ff" points="1308,-452 1197,-452 1197,-416 1308,-416 1308,-452"/>
<text text-anchor="middle" x="1252.5" y="-430.3" font-family="Times,serif" font-size="14.00">ex:qc_QC.Sty</text>
</a>
</g>
</g>
<!-- n4&#45;&gt;n11 -->
<g id="edge19" class="edge">
<title>n4&#45;&gt;n11</title>
<path fill="none" stroke="darkgreen" d="M1176.36,-304.03C1184.09,-318.72 1195.72,-340.44 1206.5,-359 1215.91,-375.2 1226.99,-393.05 1235.91,-407.16"/>
<polygon fill="darkgreen" stroke="darkgreen" points="1233.11,-409.27 1241.42,-415.83 1239.01,-405.52 1233.11,-409.27"/>
<text text-anchor="middle" x="1250.5" y="-351" font-family="Times,serif" font-size="10.00" fill="darkgreen">wasGeneratedBy</text>
</g>
<!-- n12 -->
<g id="node23" class="node">
<title>n12</title>
<g id="a_node23"><a xlink:href="https://sqaaas.eosc-synergy.eu/qc_QC.Uni" xlink:title="ex:qc_QC.Uni">
<polygon fill="#9fb1fc" stroke="#0000ff" points="2044,-452 1931,-452 1931,-416 2044,-416 2044,-452"/>
<text text-anchor="middle" x="1987.5" y="-430.3" font-family="Times,serif" font-size="14.00">ex:qc_QC.Uni</text>
</a>
</g>
</g>
<!-- n4&#45;&gt;n12 -->
<g id="edge20" class="edge">
<title>n4&#45;&gt;n12</title>
<path fill="none" stroke="darkgreen" d="M1195.4,-303.18C1213.37,-312.76 1237.58,-324.13 1260.5,-330 1374.43,-359.16 1407.81,-333.36 1524.5,-348 1666.61,-365.83 1831.12,-399.08 1920.77,-418.28"/>
<polygon fill="darkgreen" stroke="darkgreen" points="1920.29,-421.76 1930.8,-420.44 1921.76,-414.92 1920.29,-421.76"/>
<text text-anchor="middle" x="1644.5" y="-351" font-family="Times,serif" font-size="10.00" fill="darkgreen">wasGeneratedBy</text>
</g>
<!-- b1 -->
<g id="node25" class="node">
<title>b1</title>
<ellipse fill="gray" stroke="gray" cx="1076.5" cy="-434" rx="1.8" ry="1.8"/>
</g>
<!-- n4&#45;&gt;b1 -->
<g id="edge22" class="edge">
<title>n4&#45;&gt;b1</title>
<path fill="none" stroke="black" d="M1147.55,-303.74C1134.96,-315.15 1119.14,-331.19 1108.5,-348 1088.59,-379.44 1078.19,-425.15 1076.69,-432.1"/>
<text text-anchor="middle" x="1152.5" y="-351" font-family="Times,serif" font-size="10.00">wasDerivedFrom</text>
</g>
<!-- ann4 -->
<g id="node8" class="node">
<title>ann4</title>
<polygon fill="none" stroke="gray" points="1397,-205 746,-205 746,-156 1403,-156 1403,-199 1397,-205"/>
<polyline fill="none" stroke="gray" points="1397,-205 1397,-199 "/>
<polyline fill="none" stroke="gray" points="1403,-199 1397,-199 "/>
<g id="a_node8_12"><a xlink:href="http://www.w3.org/ns/prov#type" xlink:title="&lt;TABLE&gt;">
<text text-anchor="start" x="756.5" y="-190.5" font-family="Times,serif" font-size="10.00">prov:type</text>
</a>
</g>
<text text-anchor="start" x="851.5" y="-190.5" font-family="Times,serif" font-size="10.00">document</text>
<g id="a_node8_13"><a xlink:href="https://sqaaas.eosc-synergy.eu/report_json_url" xlink:title="&lt;TABLE&gt;">
<text text-anchor="start" x="756.5" y="-177.5" font-family="Times,serif" font-size="10.00">ex:report_json_url</text>
</a>
</g>
<text text-anchor="start" x="851.5" y="-177.5" font-family="Times,serif" font-size="10.00">https://raw.githubusercontent.com/eosc&#45;synergy/yProv.assess.sqaaas/main/.report/assessment_output.json</text>
<g id="a_node8_14"><a xlink:href="https://sqaaas.eosc-synergy.eu/version" xlink:title="&lt;TABLE&gt;">
<text text-anchor="start" x="756.5" y="-164.5" font-family="Times,serif" font-size="10.00">ex:version</text>
</a>
</g>
<text text-anchor="start" x="851.5" y="-164.5" font-family="Times,serif" font-size="10.00">3.2.1</text>
</g>
<!-- ann4&#45;&gt;n4 -->
<g id="edge4" class="edge">
<title>ann4&#45;&gt;n4</title>
<path fill="none" stroke="gray" stroke-dasharray="5,2" d="M1095.84,-205.24C1113.1,-224.46 1137,-251.05 1152.35,-268.14"/>
</g>
<!-- ann5 -->
<g id="node10" class="node">
<title>ann5</title>
<polygon fill="none" stroke="gray" points="247,-330 0,-330 0,-242 253,-242 253,-324 247,-330"/>
<polyline fill="none" stroke="gray" points="247,-330 247,-324 "/>
<polyline fill="none" stroke="gray" points="253,-324 247,-324 "/>
<g id="a_node10_15"><a xlink:href="http://www.w3.org/ns/prov#type" xlink:title="&lt;TABLE&gt;">
<text text-anchor="start" x="10.5" y="-316" font-family="Times,serif" font-size="10.00">prov:type</text>
</a>
</g>
<text text-anchor="start" x="127.5" y="-316" font-family="Times,serif" font-size="10.00">activity</text>
<g id="a_node10_16"><a xlink:href="https://sqaaas.eosc-synergy.eu/description" xlink:title="&lt;TABLE&gt;">
<text text-anchor="start" x="10.5" y="-303" font-family="Times,serif" font-size="10.00">ex:description</text>
</a>
</g>
<text text-anchor="start" x="127.5" y="-303" font-family="Times,serif" font-size="10.00">Description for QC.Acc</text>
<g id="a_node10_17"><a xlink:href="https://sqaaas.eosc-synergy.eu/output" xlink:title="&lt;TABLE&gt;">
<text text-anchor="start" x="10.5" y="-290" font-family="Times,serif" font-size="10.00">ex:output</text>
</a>
</g>
<text text-anchor="start" x="127.5" y="-290" font-family="Times,serif" font-size="10.00">True</text>
<g id="a_node10_18"><a xlink:href="https://sqaaas.eosc-synergy.eu/percentage" xlink:title="&lt;TABLE&gt;">
<text text-anchor="start" x="10.5" y="-277" font-family="Times,serif" font-size="10.00">ex:percentage</text>
</a>
</g>
<text text-anchor="start" x="127.5" y="-277" font-family="Times,serif" font-size="10.00">100%</text>
<g id="a_node10_19"><a xlink:href="https://sqaaas.eosc-synergy.eu/success_subcriteria" xlink:title="&lt;TABLE&gt;">
<text text-anchor="start" x="10.5" y="-264" font-family="Times,serif" font-size="10.00">ex:success_subcriteria</text>
</a>
</g>
<text text-anchor="start" x="127.5" y="-264" font-family="Times,serif" font-size="10.00">1</text>
<g id="a_node10_20"><a xlink:href="https://sqaaas.eosc-synergy.eu/total_subcriteria" xlink:title="&lt;TABLE&gt;">
<text text-anchor="start" x="10.5" y="-251" font-family="Times,serif" font-size="10.00">ex:total_subcriteria</text>
</a>
</g>
<text text-anchor="start" x="127.5" y="-251" font-family="Times,serif" font-size="10.00">1</text>
</g>
<!-- ann5&#45;&gt;n5 -->
<g id="edge5" class="edge">
<title>ann5&#45;&gt;n5</title>
<path fill="none" stroke="gray" stroke-dasharray="5,2" d="M253.21,-327.82C255.99,-328.57 258.76,-329.3 261.5,-330 366.36,-356.92 402.97,-330.02 500.5,-377 520.13,-386.46 538.7,-403.17 551.11,-415.88"/>
</g>
<!-- ann6 -->
<g id="node12" class="node">
<title>ann6</title>
<polygon fill="none" stroke="gray" points="791,-330 542,-330 542,-242 797,-242 797,-324 791,-330"/>
<polyline fill="none" stroke="gray" points="791,-330 791,-324 "/>
<polyline fill="none" stroke="gray" points="797,-324 791,-324 "/>
<g id="a_node12_21"><a xlink:href="http://www.w3.org/ns/prov#type" xlink:title="&lt;TABLE&gt;">
<text text-anchor="start" x="552.5" y="-316" font-family="Times,serif" font-size="10.00">prov:type</text>
</a>
</g>
<text text-anchor="start" x="669.5" y="-316" font-family="Times,serif" font-size="10.00">activity</text>
<g id="a_node12_22"><a xlink:href="https://sqaaas.eosc-synergy.eu/description" xlink:title="&lt;TABLE&gt;">
<text text-anchor="start" x="552.5" y="-303" font-family="Times,serif" font-size="10.00">ex:description</text>
</a>
</g>
<text text-anchor="start" x="669.5" y="-303" font-family="Times,serif" font-size="10.00">Description for QC.Doc</text>
<g id="a_node12_23"><a xlink:href="https://sqaaas.eosc-synergy.eu/output" xlink:title="&lt;TABLE&gt;">
<text text-anchor="start" x="552.5" y="-290" font-family="Times,serif" font-size="10.00">ex:output</text>
</a>
</g>
<text text-anchor="start" x="669.5" y="-290" font-family="Times,serif" font-size="10.00">False</text>
<g id="a_node12_24"><a xlink:href="https://sqaaas.eosc-synergy.eu/percentage" xlink:title="&lt;TABLE&gt;">
<text text-anchor="start" x="552.5" y="-277" font-family="Times,serif" font-size="10.00">ex:percentage</text>
</a>
</g>
<text text-anchor="start" x="669.5" y="-277" font-family="Times,serif" font-size="10.00">50%</text>
<g id="a_node12_25"><a xlink:href="https://sqaaas.eosc-synergy.eu/success_subcriteria" xlink:title="&lt;TABLE&gt;">
<text text-anchor="start" x="552.5" y="-264" font-family="Times,serif" font-size="10.00">ex:success_subcriteria</text>
</a>
</g>
<text text-anchor="start" x="669.5" y="-264" font-family="Times,serif" font-size="10.00">2</text>
<g id="a_node12_26"><a xlink:href="https://sqaaas.eosc-synergy.eu/total_subcriteria" xlink:title="&lt;TABLE&gt;">
<text text-anchor="start" x="552.5" y="-251" font-family="Times,serif" font-size="10.00">ex:total_subcriteria</text>
</a>
</g>
<text text-anchor="start" x="669.5" y="-251" font-family="Times,serif" font-size="10.00">4</text>
</g>
<!-- ann6&#45;&gt;n6 -->
<g id="edge6" class="edge">
<title>ann6&#45;&gt;n6</title>
<path fill="none" stroke="gray" stroke-dasharray="5,2" d="M685.99,-330.3C691.94,-341.05 699.67,-351.6 709.5,-359 737.92,-380.4 755.64,-361.16 787.5,-377 807.05,-386.72 825.8,-403.22 838.47,-415.8"/>
</g>
<!-- ann7 -->
<g id="node14" class="node">
<title>ann7</title>
<polygon fill="none" stroke="gray" points="1059.5,-330 815.5,-330 815.5,-242 1065.5,-242 1065.5,-324 1059.5,-330"/>
<polyline fill="none" stroke="gray" points="1059.5,-330 1059.5,-324 "/>
<polyline fill="none" stroke="gray" points="1065.5,-324 1059.5,-324 "/>
<g id="a_node14_27"><a xlink:href="http://www.w3.org/ns/prov#type" xlink:title="&lt;TABLE&gt;">
<text text-anchor="start" x="825.5" y="-316" font-family="Times,serif" font-size="10.00">prov:type</text>
</a>
</g>
<text text-anchor="start" x="942.5" y="-316" font-family="Times,serif" font-size="10.00">activity</text>
<g id="a_node14_28"><a xlink:href="https://sqaaas.eosc-synergy.eu/description" xlink:title="&lt;TABLE&gt;">
<text text-anchor="start" x="825.5" y="-303" font-family="Times,serif" font-size="10.00">ex:description</text>
</a>
</g>
<text text-anchor="start" x="942.5" y="-303" font-family="Times,serif" font-size="10.00">Description for QC.Lic</text>
<g id="a_node14_29"><a xlink:href="https://sqaaas.eosc-synergy.eu/output" xlink:title="&lt;TABLE&gt;">
<text text-anchor="start" x="825.5" y="-290" font-family="Times,serif" font-size="10.00">ex:output</text>
</a>
</g>
<text text-anchor="start" x="942.5" y="-290" font-family="Times,serif" font-size="10.00">False</text>
<g id="a_node14_30"><a xlink:href="https://sqaaas.eosc-synergy.eu/percentage" xlink:title="&lt;TABLE&gt;">
<text text-anchor="start" x="825.5" y="-277" font-family="Times,serif" font-size="10.00">ex:percentage</text>
</a>
</g>
<text text-anchor="start" x="942.5" y="-277" font-family="Times,serif" font-size="10.00">0%</text>
<g id="a_node14_31"><a xlink:href="https://sqaaas.eosc-synergy.eu/success_subcriteria" xlink:title="&lt;TABLE&gt;">
<text text-anchor="start" x="825.5" y="-264" font-family="Times,serif" font-size="10.00">ex:success_subcriteria</text>
</a>
</g>
<text text-anchor="start" x="942.5" y="-264" font-family="Times,serif" font-size="10.00">0</text>
<g id="a_node14_32"><a xlink:href="https://sqaaas.eosc-synergy.eu/total_subcriteria" xlink:title="&lt;TABLE&gt;">
<text text-anchor="start" x="825.5" y="-251" font-family="Times,serif" font-size="10.00">ex:total_subcriteria</text>
</a>
</g>
<text text-anchor="start" x="942.5" y="-251" font-family="Times,serif" font-size="10.00">4</text>
</g>
<!-- ann7&#45;&gt;n7 -->
<g id="edge7" class="edge">
<title>ann7&#45;&gt;n7</title>
<path fill="none" stroke="gray" stroke-dasharray="5,2" d="M854.85,-330.14C847.59,-338.97 845.63,-348.73 853.5,-359 872.26,-383.47 893.36,-362.37 920.5,-377 939.05,-387 956.66,-403.47 968.53,-415.97"/>
</g>
<!-- ann8 -->
<g id="node16" class="node">
<title>ann8</title>
<polygon fill="none" stroke="gray" points="1785.5,-330 1539.5,-330 1539.5,-242 1791.5,-242 1791.5,-324 1785.5,-330"/>
<polyline fill="none" stroke="gray" points="1785.5,-330 1785.5,-324 "/>
<polyline fill="none" stroke="gray" points="1791.5,-324 1785.5,-324 "/>
<g id="a_node16_33"><a xlink:href="http://www.w3.org/ns/prov#type" xlink:title="&lt;TABLE&gt;">
<text text-anchor="start" x="1549.5" y="-316" font-family="Times,serif" font-size="10.00">prov:type</text>
</a>
</g>
<text text-anchor="start" x="1666.5" y="-316" font-family="Times,serif" font-size="10.00">activity</text>
<g id="a_node16_34"><a xlink:href="https://sqaaas.eosc-synergy.eu/description" xlink:title="&lt;TABLE&gt;">
<text text-anchor="start" x="1549.5" y="-303" font-family="Times,serif" font-size="10.00">ex:description</text>
</a>
</g>
<text text-anchor="start" x="1666.5" y="-303" font-family="Times,serif" font-size="10.00">Description for QC.Ver</text>
<g id="a_node16_35"><a xlink:href="https://sqaaas.eosc-synergy.eu/output" xlink:title="&lt;TABLE&gt;">
<text text-anchor="start" x="1549.5" y="-290" font-family="Times,serif" font-size="10.00">ex:output</text>
</a>
</g>
<text text-anchor="start" x="1666.5" y="-290" font-family="Times,serif" font-size="10.00">False</text>
<g id="a_node16_36"><a xlink:href="https://sqaaas.eosc-synergy.eu/percentage" xlink:title="&lt;TABLE&gt;">
<text text-anchor="start" x="1549.5" y="-277" font-family="Times,serif" font-size="10.00">ex:percentage</text>
</a>
</g>
<text text-anchor="start" x="1666.5" y="-277" font-family="Times,serif" font-size="10.00">33%</text>
<g id="a_node16_37"><a xlink:href="https://sqaaas.eosc-synergy.eu/success_subcriteria" xlink:title="&lt;TABLE&gt;">
<text text-anchor="start" x="1549.5" y="-264" font-family="Times,serif" font-size="10.00">ex:success_subcriteria</text>
</a>
</g>
<text text-anchor="start" x="1666.5" y="-264" font-family="Times,serif" font-size="10.00">1</text>
<g id="a_node16_38"><a xlink:href="https://sqaaas.eosc-synergy.eu/total_subcriteria" xlink:title="&lt;TABLE&gt;">
<text text-anchor="start" x="1549.5" y="-251" font-family="Times,serif" font-size="10.00">ex:total_subcriteria</text>
</a>
</g>
<text text-anchor="start" x="1666.5" y="-251" font-family="Times,serif" font-size="10.00">3</text>
</g>
<!-- ann8&#45;&gt;n8 -->
<g id="edge8" class="edge">
<title>ann8&#45;&gt;n8</title>
<path fill="none" stroke="gray" stroke-dasharray="5,2" d="M1631.14,-330.29C1620.49,-341.18 1607.97,-351.8 1594.5,-359 1556.98,-379.05 1540.3,-361.98 1500.5,-377 1474.71,-386.74 1447.87,-403.24 1429.33,-415.81"/>
</g>
<!-- ann9 -->
<g id="node18" class="node">
<title>ann9</title>
<polygon fill="none" stroke="gray" points="2059,-330 1810,-330 1810,-242 2065,-242 2065,-324 2059,-330"/>
<polyline fill="none" stroke="gray" points="2059,-330 2059,-324 "/>
<polyline fill="none" stroke="gray" points="2065,-324 2059,-324 "/>
<g id="a_node18_39"><a xlink:href="http://www.w3.org/ns/prov#type" xlink:title="&lt;TABLE&gt;">
<text text-anchor="start" x="1820.5" y="-316" font-family="Times,serif" font-size="10.00">prov:type</text>
</a>
</g>
<text text-anchor="start" x="1937.5" y="-316" font-family="Times,serif" font-size="10.00">activity</text>
<g id="a_node18_40"><a xlink:href="https://sqaaas.eosc-synergy.eu/description" xlink:title="&lt;TABLE&gt;">
<text text-anchor="start" x="1820.5" y="-303" font-family="Times,serif" font-size="10.00">ex:description</text>
</a>
</g>
<text text-anchor="start" x="1937.5" y="-303" font-family="Times,serif" font-size="10.00">Description for QC.Met</text>
<g id="a_node18_41"><a xlink:href="https://sqaaas.eosc-synergy.eu/output" xlink:title="&lt;TABLE&gt;">
<text text-anchor="start" x="1820.5" y="-290" font-family="Times,serif" font-size="10.00">ex:output</text>
</a>
</g>
<text text-anchor="start" x="1937.5" y="-290" font-family="Times,serif" font-size="10.00">False</text>
<g id="a_node18_42"><a xlink:href="https://sqaaas.eosc-synergy.eu/percentage" xlink:title="&lt;TABLE&gt;">
<text text-anchor="start" x="1820.5" y="-277" font-family="Times,serif" font-size="10.00">ex:percentage</text>
</a>
</g>
<text text-anchor="start" x="1937.5" y="-277" font-family="Times,serif" font-size="10.00">0%</text>
<g id="a_node18_43"><a xlink:href="https://sqaaas.eosc-synergy.eu/success_subcriteria" xlink:title="&lt;TABLE&gt;">
<text text-anchor="start" x="1820.5" y="-264" font-family="Times,serif" font-size="10.00">ex:success_subcriteria</text>
</a>
</g>
<text text-anchor="start" x="1937.5" y="-264" font-family="Times,serif" font-size="10.00">0</text>
<g id="a_node18_44"><a xlink:href="https://sqaaas.eosc-synergy.eu/total_subcriteria" xlink:title="&lt;TABLE&gt;">
<text text-anchor="start" x="1820.5" y="-251" font-family="Times,serif" font-size="10.00">ex:total_subcriteria</text>
</a>
</g>
<text text-anchor="start" x="1937.5" y="-251" font-family="Times,serif" font-size="10.00">1</text>
</g>
<!-- ann9&#45;&gt;n9 -->
<g id="edge9" class="edge">
<title>ann9&#45;&gt;n9</title>
<path fill="none" stroke="gray" stroke-dasharray="5,2" d="M1897.84,-330.07C1886.08,-340.82 1872.55,-351.43 1858.5,-359 1783.92,-399.17 1686.77,-418.16 1625.75,-426.67"/>
</g>
<!-- ann10 -->
<g id="node20" class="node">
<title>ann10</title>
<polygon fill="none" stroke="gray" points="518,-330 271,-330 271,-242 524,-242 524,-324 518,-330"/>
<polyline fill="none" stroke="gray" points="518,-330 518,-324 "/>
<polyline fill="none" stroke="gray" points="524,-324 518,-324 "/>
<g id="a_node20_45"><a xlink:href="http://www.w3.org/ns/prov#type" xlink:title="&lt;TABLE&gt;">
<text text-anchor="start" x="281.5" y="-316" font-family="Times,serif" font-size="10.00">prov:type</text>
</a>
</g>
<text text-anchor="start" x="398.5" y="-316" font-family="Times,serif" font-size="10.00">activity</text>
<g id="a_node20_46"><a xlink:href="https://sqaaas.eosc-synergy.eu/description" xlink:title="&lt;TABLE&gt;">
<text text-anchor="start" x="281.5" y="-303" font-family="Times,serif" font-size="10.00">ex:description</text>
</a>
</g>
<text text-anchor="start" x="398.5" y="-303" font-family="Times,serif" font-size="10.00">Description for QC.Sec</text>
<g id="a_node20_47"><a xlink:href="https://sqaaas.eosc-synergy.eu/output" xlink:title="&lt;TABLE&gt;">
<text text-anchor="start" x="281.5" y="-290" font-family="Times,serif" font-size="10.00">ex:output</text>
</a>
</g>
<text text-anchor="start" x="398.5" y="-290" font-family="Times,serif" font-size="10.00">False</text>
<g id="a_node20_48"><a xlink:href="https://sqaaas.eosc-synergy.eu/percentage" xlink:title="&lt;TABLE&gt;">
<text text-anchor="start" x="281.5" y="-277" font-family="Times,serif" font-size="10.00">ex:percentage</text>
</a>
</g>
<text text-anchor="start" x="398.5" y="-277" font-family="Times,serif" font-size="10.00">0%</text>
<g id="a_node20_49"><a xlink:href="https://sqaaas.eosc-synergy.eu/success_subcriteria" xlink:title="&lt;TABLE&gt;">
<text text-anchor="start" x="281.5" y="-264" font-family="Times,serif" font-size="10.00">ex:success_subcriteria</text>
</a>
</g>
<text text-anchor="start" x="398.5" y="-264" font-family="Times,serif" font-size="10.00">0</text>
<g id="a_node20_50"><a xlink:href="https://sqaaas.eosc-synergy.eu/total_subcriteria" xlink:title="&lt;TABLE&gt;">
<text text-anchor="start" x="281.5" y="-251" font-family="Times,serif" font-size="10.00">ex:total_subcriteria</text>
</a>
</g>
<text text-anchor="start" x="398.5" y="-251" font-family="Times,serif" font-size="10.00">1</text>
</g>
<!-- ann10&#45;&gt;n10 -->
<g id="edge10" class="edge">
<title>ann10&#45;&gt;n10</title>
<path fill="none" stroke="gray" stroke-dasharray="5,2" d="M476.44,-330.18C498.04,-340.74 521.78,-351.22 544.5,-359 581.86,-371.79 594.8,-362.43 631.5,-377 656.33,-386.85 682.02,-403.34 699.74,-415.88"/>
</g>
<!-- ann11 -->
<g id="node22" class="node">
<title>ann11</title>
<polygon fill="none" stroke="gray" points="1515.5,-330 1269.5,-330 1269.5,-242 1521.5,-242 1521.5,-324 1515.5,-330"/>
<polyline fill="none" stroke="gray" points="1515.5,-330 1515.5,-324 "/>
<polyline fill="none" stroke="gray" points="1521.5,-324 1515.5,-324 "/>
<g id="a_node22_51"><a xlink:href="http://www.w3.org/ns/prov#type" xlink:title="&lt;TABLE&gt;">
<text text-anchor="start" x="1279.5" y="-316" font-family="Times,serif" font-size="10.00">prov:type</text>
</a>
</g>
<text text-anchor="start" x="1396.5" y="-316" font-family="Times,serif" font-size="10.00">activity</text>
<g id="a_node22_52"><a xlink:href="https://sqaaas.eosc-synergy.eu/description" xlink:title="&lt;TABLE&gt;">
<text text-anchor="start" x="1279.5" y="-303" font-family="Times,serif" font-size="10.00">ex:description</text>
</a>
</g>
<text text-anchor="start" x="1396.5" y="-303" font-family="Times,serif" font-size="10.00">Description for QC.Sty</text>
<g id="a_node22_53"><a xlink:href="https://sqaaas.eosc-synergy.eu/output" xlink:title="&lt;TABLE&gt;">
<text text-anchor="start" x="1279.5" y="-290" font-family="Times,serif" font-size="10.00">ex:output</text>
</a>
</g>
<text text-anchor="start" x="1396.5" y="-290" font-family="Times,serif" font-size="10.00">False</text>
<g id="a_node22_54"><a xlink:href="https://sqaaas.eosc-synergy.eu/percentage" xlink:title="&lt;TABLE&gt;">
<text text-anchor="start" x="1279.5" y="-277" font-family="Times,serif" font-size="10.00">ex:percentage</text>
</a>
</g>
<text text-anchor="start" x="1396.5" y="-277" font-family="Times,serif" font-size="10.00">0%</text>
<g id="a_node22_55"><a xlink:href="https://sqaaas.eosc-synergy.eu/success_subcriteria" xlink:title="&lt;TABLE&gt;">
<text text-anchor="start" x="1279.5" y="-264" font-family="Times,serif" font-size="10.00">ex:success_subcriteria</text>
</a>
</g>
<text text-anchor="start" x="1396.5" y="-264" font-family="Times,serif" font-size="10.00">0</text>
<g id="a_node22_56"><a xlink:href="https://sqaaas.eosc-synergy.eu/total_subcriteria" xlink:title="&lt;TABLE&gt;">
<text text-anchor="start" x="1279.5" y="-251" font-family="Times,serif" font-size="10.00">ex:total_subcriteria</text>
</a>
</g>
<text text-anchor="start" x="1396.5" y="-251" font-family="Times,serif" font-size="10.00">1</text>
</g>
<!-- ann11&#45;&gt;n11 -->
<g id="edge11" class="edge">
<title>ann11&#45;&gt;n11</title>
<path fill="none" stroke="gray" stroke-dasharray="5,2" d="M1411.74,-330.14C1412.97,-340.4 1411.75,-350.75 1405.5,-359 1387.66,-382.55 1368.51,-365.01 1341.5,-377 1317.81,-387.52 1293.02,-403.6 1275.63,-415.83"/>
</g>
<!-- ann12 -->
<g id="node24" class="node">
<title>ann12</title>
<polygon fill="none" stroke="gray" points="2330,-330 2083,-330 2083,-242 2336,-242 2336,-324 2330,-330"/>
<polyline fill="none" stroke="gray" points="2330,-330 2330,-324 "/>
<polyline fill="none" stroke="gray" points="2336,-324 2330,-324 "/>
<g id="a_node24_57"><a xlink:href="http://www.w3.org/ns/prov#type" xlink:title="&lt;TABLE&gt;">
<text text-anchor="start" x="2093.5" y="-316" font-family="Times,serif" font-size="10.00">prov:type</text>
</a>
</g>
<text text-anchor="start" x="2210.5" y="-316" font-family="Times,serif" font-size="10.00">activity</text>
<g id="a_node24_58"><a xlink:href="https://sqaaas.eosc-synergy.eu/description" xlink:title="&lt;TABLE&gt;">
<text text-anchor="start" x="2093.5" y="-303" font-family="Times,serif" font-size="10.00">ex:description</text>
</a>
</g>
<text text-anchor="start" x="2210.5" y="-303" font-family="Times,serif" font-size="10.00">Description for QC.Uni</text>
<g id="a_node24_59"><a xlink:href="https://sqaaas.eosc-synergy.eu/output" xlink:title="&lt;TABLE&gt;">
<text text-anchor="start" x="2093.5" y="-290" font-family="Times,serif" font-size="10.00">ex:output</text>
</a>
</g>
<text text-anchor="start" x="2210.5" y="-290" font-family="Times,serif" font-size="10.00">False</text>
<g id="a_node24_60"><a xlink:href="https://sqaaas.eosc-synergy.eu/percentage" xlink:title="&lt;TABLE&gt;">
<text text-anchor="start" x="2093.5" y="-277" font-family="Times,serif" font-size="10.00">ex:percentage</text>
</a>
</g>
<text text-anchor="start" x="2210.5" y="-277" font-family="Times,serif" font-size="10.00">0%</text>
<g id="a_node24_61"><a xlink:href="https://sqaaas.eosc-synergy.eu/success_subcriteria" xlink:title="&lt;TABLE&gt;">
<text text-anchor="start" x="2093.5" y="-264" font-family="Times,serif" font-size="10.00">ex:success_subcriteria</text>
</a>
</g>
<text text-anchor="start" x="2210.5" y="-264" font-family="Times,serif" font-size="10.00">0</text>
<g id="a_node24_62"><a xlink:href="https://sqaaas.eosc-synergy.eu/total_subcriteria" xlink:title="&lt;TABLE&gt;">
<text text-anchor="start" x="2093.5" y="-251" font-family="Times,serif" font-size="10.00">ex:total_subcriteria</text>
</a>
</g>
<text text-anchor="start" x="2210.5" y="-251" font-family="Times,serif" font-size="10.00">1</text>
</g>
<!-- ann12&#45;&gt;n12 -->
<g id="edge12" class="edge">
<title>ann12&#45;&gt;n12</title>
<path fill="none" stroke="gray" stroke-dasharray="5,2" d="M2144.09,-330.02C2100.35,-358.78 2045.18,-395.07 2013.36,-415.99"/>
</g>
<!-- b1&#45;&gt;n2 -->
<g id="edge23" class="edge">
<title>b1&#45;&gt;n2</title>
<path fill="none" stroke="black" d="M1076.32,-436.01C1075.13,-442.35 1067.79,-476.81 1046.5,-491 1008.33,-516.44 722.86,-533.77 576.5,-541.09"/>
<polygon fill="black" stroke="black" points="576.02,-537.61 566.2,-541.6 576.37,-544.6 576.02,-537.61"/>
</g>
<!-- b2&#45;&gt;n4 -->
<g id="edge25" class="edge">
<title>b2&#45;&gt;n4</title>
<path fill="none" stroke="black" d="M1422.38,-182.59C1421.9,-186.33 1419.8,-198.8 1412.5,-205 1359.48,-249.98 1326.14,-219.08 1260.5,-242 1242.53,-248.27 1223.34,-256.82 1207.08,-264.63"/>
<polygon fill="black" stroke="black" points="1205.33,-261.59 1197.88,-269.13 1208.4,-267.88 1205.33,-261.59"/>
</g>
</g>
</svg>
