<?xml version="1.0" encoding="UTF-8" standalone="no"?>
<!DOCTYPE svg PUBLIC "-//W3C//DTD SVG 1.1//EN"
 "http://www.w3.org/Graphics/SVG/1.1/DTD/svg11.dtd">
<!-- Generated by graphviz version 2.43.0 (0)
 -->
<!-- Title: G Pages: 1 -->
<svg width="1925pt" height="720pt"
 viewBox="0.00 0.00 1925.00 720.00" xmlns="http://www.w3.org/2000/svg" xmlns:xlink="http://www.w3.org/1999/xlink">
<g id="graph0" class="graph" transform="scale(1 1) rotate(0) translate(4 716)">
<title>G</title>
<polygon fill="white" stroke="transparent" points="-4,4 -4,-716 1921,-716 1921,4 -4,4"/>
<!-- n1 -->
<g id="node1" class="node">
<title>n1</title>
<g id="a_node1"><a xlink:href="https://sqaaas.eosc-synergy.eu/SQAaaS" xlink:title="ex:SQAaaS">
<polygon fill="#fed37f" stroke="black" points="302.14,-699.56 226,-712 149.86,-699.56 149.93,-679.44 302.07,-679.44 302.14,-699.56"/>
<text text-anchor="middle" x="226" y="-690.3" font-family="Times,serif" font-size="14.00">ex:SQAaaS</text>
</a>
</g>
</g>
<!-- ann1 -->
<g id="node2" class="node">
<title>ann1</title>
<polygon fill="none" stroke="gray" points="291,-629 123,-629 123,-593 297,-593 297,-623 291,-629"/>
<polyline fill="none" stroke="gray" points="291,-629 291,-623 "/>
<polyline fill="none" stroke="gray" points="297,-623 291,-623 "/>
<g id="a_node2_0"><a xlink:href="http://www.w3.org/ns/prov#type" xlink:title="&lt;TABLE&gt;">
<text text-anchor="start" x="133" y="-615" font-family="Times,serif" font-size="10.00">prov:type</text>
</a>
</g>
<text text-anchor="start" x="184" y="-615" font-family="Times,serif" font-size="10.00">prov:SoftwareAgent</text>
<g id="a_node2_1"><a xlink:href="http://www.w3.org/2001/XMLSchema#type" xlink:title="&lt;TABLE&gt;">
<text text-anchor="start" x="133" y="-602" font-family="Times,serif" font-size="10.00">xsd:type</text>
</a>
</g>
<text text-anchor="start" x="184" y="-602" font-family="Times,serif" font-size="10.00">xsd:QName</text>
</g>
<!-- ann1&#45;&gt;n1 -->
<g id="edge1" class="edge">
<title>ann1&#45;&gt;n1</title>
<path fill="none" stroke="gray" stroke-dasharray="5,2" d="M213.39,-629.18C216.35,-644.13 220.57,-665.52 223.3,-679.33"/>
</g>
<!-- n2 -->
<g id="node3" class="node">
<title>n2</title>
<g id="a_node3"><a xlink:href="https://sqaaas.eosc-synergy.eu/repository1" xlink:title="ex:repository1">
<ellipse fill="#fffc87" stroke="#808080" cx="393" cy="-611" rx="77.99" ry="18"/>
<text text-anchor="middle" x="393" y="-607.3" font-family="Times,serif" font-size="14.00">ex:repository1</text>
</a>
</g>
</g>
<!-- n2&#45;&gt;n1 -->
<g id="edge21" class="edge">
<title>n2&#45;&gt;n1</title>
<path fill="none" stroke="#fed37f" d="M360.8,-627.62C332.92,-641.14 292.58,-660.71 263.3,-674.91"/>
<polygon fill="#fed37f" stroke="#fed37f" points="261.68,-671.8 254.21,-679.32 264.74,-678.1 261.68,-671.8"/>
<text text-anchor="middle" x="362" y="-650" font-family="Times,serif" font-size="10.00">wasAttributedTo</text>
</g>
<!-- ann2 -->
<g id="node4" class="node">
<title>ann2</title>
<polygon fill="none" stroke="gray" points="370,-556 0,-556 0,-494 376,-494 376,-550 370,-556"/>
<polyline fill="none" stroke="gray" points="370,-556 370,-550 "/>
<polyline fill="none" stroke="gray" points="376,-550 370,-550 "/>
<g id="a_node4_2"><a xlink:href="http://www.w3.org/ns/prov#type" xlink:title="&lt;TABLE&gt;">
<text text-anchor="start" x="10" y="-542" font-family="Times,serif" font-size="10.00">prov:type</text>
</a>
</g>
<text text-anchor="start" x="79" y="-542" font-family="Times,serif" font-size="10.00">document</text>
<g id="a_node4_3"><a xlink:href="https://sqaaas.eosc-synergy.eu/avatar_url" xlink:title="&lt;TABLE&gt;">
<text text-anchor="start" x="10" y="-529" font-family="Times,serif" font-size="10.00">ex:avatar_url</text>
</a>
</g>
<text text-anchor="start" x="79" y="-529" font-family="Times,serif" font-size="10.00">https://avatars.githubusercontent.com/u/123980631?v=4</text>
<g id="a_node4_4"><a xlink:href="https://sqaaas.eosc-synergy.eu/name" xlink:title="&lt;TABLE&gt;">
<text text-anchor="start" x="10" y="-516" font-family="Times,serif" font-size="10.00">ex:name</text>
</a>
</g>
<text text-anchor="start" x="79" y="-516" font-family="Times,serif" font-size="10.00">interTwin&#45;eu/itwinai</text>
<g id="a_node4_5"><a xlink:href="https://sqaaas.eosc-synergy.eu/url" xlink:title="&lt;TABLE&gt;">
<text text-anchor="start" x="10" y="-503" font-family="Times,serif" font-size="10.00">ex:url</text>
</a>
</g>
<text text-anchor="start" x="79" y="-503" font-family="Times,serif" font-size="10.00">https://github.com/interTwin&#45;eu/itwinai</text>
</g>
<!-- ann2&#45;&gt;n2 -->
<g id="edge2" class="edge">
<title>ann2&#45;&gt;n2</title>
<path fill="none" stroke="gray" stroke-dasharray="5,2" d="M261.43,-556.09C293.71,-569.32 330.19,-584.26 356.54,-595.06"/>
</g>
<!-- n3 -->
<g id="node5" class="node">
<title>n3</title>
<g id="a_node5"><a xlink:href="https://sqaaas.eosc-synergy.eu/output1" xlink:title="ex:output1">
<ellipse fill="#fffc87" stroke="#808080" cx="1240" cy="-169" rx="61.19" ry="18"/>
<text text-anchor="middle" x="1240" y="-165.3" font-family="Times,serif" font-size="14.00">ex:output1</text>
</a>
</g>
</g>
<!-- b2 -->
<g id="node26" class="node">
<title>b2</title>
<ellipse fill="gray" stroke="gray" cx="1240" cy="-278" rx="1.8" ry="1.8"/>
</g>
<!-- n3&#45;&gt;b2 -->
<g id="edge24" class="edge">
<title>n3&#45;&gt;b2</title>
<path fill="none" stroke="black" d="M1240,-187.19C1240,-215.07 1240,-267.87 1240,-275.95"/>
<text text-anchor="middle" x="1284" y="-208" font-family="Times,serif" font-size="10.00">wasDerivedFrom</text>
</g>
<!-- ann3 -->
<g id="node6" class="node">
<title>ann3</title>
<polygon fill="none" stroke="gray" points="1512.5,-114 961.5,-114 961.5,0 1518.5,0 1518.5,-108 1512.5,-114"/>
<polyline fill="none" stroke="gray" points="1512.5,-114 1512.5,-108 "/>
<polyline fill="none" stroke="gray" points="1518.5,-108 1512.5,-108 "/>
<g id="a_node6_6"><a xlink:href="http://www.w3.org/ns/prov#type" xlink:title="&lt;TABLE&gt;">
<text text-anchor="start" x="972" y="-100" font-family="Times,serif" font-size="10.00">prov:type</text>
</a>
</g>
<text text-anchor="start" x="1134" y="-100" font-family="Times,serif" font-size="10.00">document</text>
<g id="a_node6_7"><a xlink:href="https://sqaaas.eosc-synergy.eu/Issued_On:str" xlink:title="&lt;TABLE&gt;">
<text text-anchor="start" x="972" y="-87" font-family="Times,serif" font-size="10.00">ex:Issued_On:str</text>
</a>
</g>
<text text-anchor="start" x="1134" y="-87" font-family="Times,serif" font-size="10.00">2025&#45;03&#45;26T15:41:12.566713041Z</text>
<g id="a_node6_8"><a xlink:href="https://sqaaas.eosc-synergy.eu/badge_won" xlink:title="&lt;TABLE&gt;">
<text text-anchor="start" x="972" y="-74" font-family="Times,serif" font-size="10.00">ex:badge_won</text>
</a>
</g>
<text text-anchor="start" x="1134" y="-74" font-family="Times,serif" font-size="10.00">silver</text>
<g id="a_node6_9"><a xlink:href="https://sqaaas.eosc-synergy.eu/badgeclassOpenBadgeId:str" xlink:title="&lt;TABLE&gt;">
<text text-anchor="start" x="972" y="-61" font-family="Times,serif" font-size="10.00">ex:badgeclassOpenBadgeId:str</text>
</a>
</g>
<text text-anchor="start" x="1134" y="-61" font-family="Times,serif" font-size="10.00">https://api.eu.badgr.io/public/badges/IDUsZJpNQPuiJpPwmJ8iJw</text>
<g id="a_node6_10"><a xlink:href="https://sqaaas.eosc-synergy.eu/createdAt:str" xlink:title="&lt;TABLE&gt;">
<text text-anchor="start" x="972" y="-48" font-family="Times,serif" font-size="10.00">ex:createdAt:str</text>
</a>
</g>
<text text-anchor="start" x="1134" y="-48" font-family="Times,serif" font-size="10.00">2025&#45;03&#45;26T15:41:12.566708231Z</text>
<g id="a_node6_11"><a xlink:href="https://sqaaas.eosc-synergy.eu/entityType:str" xlink:title="&lt;TABLE&gt;">
<text text-anchor="start" x="972" y="-35" font-family="Times,serif" font-size="10.00">ex:entityType:str</text>
</a>
</g>
<text text-anchor="start" x="1134" y="-35" font-family="Times,serif" font-size="10.00">Assertion</text>
<g id="a_node6_12"><a xlink:href="https://sqaaas.eosc-synergy.eu/image:str" xlink:title="&lt;TABLE&gt;">
<text text-anchor="start" x="972" y="-22" font-family="Times,serif" font-size="10.00">ex:image:str</text>
</a>
</g>
<text text-anchor="start" x="1134" y="-22" font-family="Times,serif" font-size="10.00">https://api.eu.badgr.io/public/assertions/H0HP8hgtThi8l81ZjTSxSQ/image</text>
<g id="a_node6_13"><a xlink:href="https://sqaaas.eosc-synergy.eu/openBadgeId:str" xlink:title="&lt;TABLE&gt;">
<text text-anchor="start" x="972" y="-9" font-family="Times,serif" font-size="10.00">ex:openBadgeId:str</text>
</a>
</g>
<text text-anchor="start" x="1134" y="-9" font-family="Times,serif" font-size="10.00">https://api.eu.badgr.io/public/assertions/H0HP8hgtThi8l81ZjTSxSQ</text>
</g>
<!-- ann3&#45;&gt;n3 -->
<g id="edge3" class="edge">
<title>ann3&#45;&gt;n3</title>
<path fill="none" stroke="gray" stroke-dasharray="5,2" d="M1240,-114.29C1240,-127.61 1240,-140.83 1240,-150.82"/>
</g>
<!-- n4 -->
<g id="node7" class="node">
<title>n4</title>
<g id="a_node7"><a xlink:href="https://sqaaas.eosc-synergy.eu/assessment1" xlink:title="ex:assessment1">
<ellipse fill="#fffc87" stroke="#808080" cx="983" cy="-403" rx="84.49" ry="18"/>
<text text-anchor="middle" x="983" y="-399.3" font-family="Times,serif" font-size="14.00">ex:assessment1</text>
</a>
</g>
</g>
<!-- n5 -->
<g id="node9" class="node">
<title>n5</title>
<g id="a_node9"><a xlink:href="https://sqaaas.eosc-synergy.eu/qc_QC.Acc1" xlink:title="ex:qc_QC.Acc1">
<polygon fill="#9fb1fc" stroke="#0000ff" points="515.5,-543 394.5,-543 394.5,-507 515.5,-507 515.5,-543"/>
<text text-anchor="middle" x="455" y="-521.3" font-family="Times,serif" font-size="14.00">ex:qc_QC.Acc1</text>
</a>
</g>
</g>
<!-- n4&#45;&gt;n5 -->
<g id="edge13" class="edge">
<title>n4&#45;&gt;n5</title>
<path fill="none" stroke="darkgreen" d="M952.67,-420.02C932.86,-429.67 906.09,-441.18 881,-447 743.97,-478.79 700.4,-426.85 565,-465 537.44,-472.76 509.03,-488.23 487.98,-501.38"/>
<polygon fill="darkgreen" stroke="darkgreen" points="485.98,-498.51 479.44,-506.84 489.75,-504.4 485.98,-498.51"/>
<text text-anchor="middle" x="609" y="-468" font-family="Times,serif" font-size="10.00" fill="darkgreen">wasGeneratedBy</text>
</g>
<!-- n6 -->
<g id="node11" class="node">
<title>n6</title>
<g id="a_node11"><a xlink:href="https://sqaaas.eosc-synergy.eu/qc_QC.Doc1" xlink:title="ex:qc_QC.Doc1">
<polygon fill="#9fb1fc" stroke="#0000ff" points="795.5,-543 672.5,-543 672.5,-507 795.5,-507 795.5,-543"/>
<text text-anchor="middle" x="734" y="-521.3" font-family="Times,serif" font-size="14.00">ex:qc_QC.Doc1</text>
</a>
</g>
</g>
<!-- n4&#45;&gt;n6 -->
<g id="edge14" class="edge">
<title>n4&#45;&gt;n6</title>
<path fill="none" stroke="darkgreen" d="M950.59,-419.78C930.86,-428.85 904.93,-439.83 881,-447 839,-459.59 821.93,-443 784,-465 770.07,-473.08 758.23,-486.53 749.56,-498.55"/>
<polygon fill="darkgreen" stroke="darkgreen" points="746.57,-496.72 743.83,-506.96 752.36,-500.66 746.57,-496.72"/>
<text text-anchor="middle" x="828" y="-468" font-family="Times,serif" font-size="10.00" fill="darkgreen">wasGeneratedBy</text>
</g>
<!-- n7 -->
<g id="node13" class="node">
<title>n7</title>
<g id="a_node13"><a xlink:href="https://sqaaas.eosc-synergy.eu/qc_QC.Lic1" xlink:title="ex:qc_QC.Lic1">
<polygon fill="#9fb1fc" stroke="#0000ff" points="930.5,-543 813.5,-543 813.5,-507 930.5,-507 930.5,-543"/>
<text text-anchor="middle" x="872" y="-521.3" font-family="Times,serif" font-size="14.00">ex:qc_QC.Lic1</text>
</a>
</g>
</g>
<!-- n4&#45;&gt;n7 -->
<g id="edge15" class="edge">
<title>n4&#45;&gt;n7</title>
<path fill="none" stroke="darkgreen" d="M941.51,-418.75C920.04,-428.55 895.38,-443.59 881,-465 874.8,-474.22 872.22,-486.07 871.31,-496.73"/>
<polygon fill="darkgreen" stroke="darkgreen" points="867.81,-496.71 870.88,-506.85 874.8,-497.01 867.81,-496.71"/>
<text text-anchor="middle" x="925" y="-468" font-family="Times,serif" font-size="10.00" fill="darkgreen">wasGeneratedBy</text>
</g>
<!-- n8 -->
<g id="node15" class="node">
<title>n8</title>
<g id="a_node15"><a xlink:href="https://sqaaas.eosc-synergy.eu/qc_QC.Met1" xlink:title="ex:qc_QC.Met1">
<polygon fill="#9fb1fc" stroke="#0000ff" points="1308.5,-543 1183.5,-543 1183.5,-507 1308.5,-507 1308.5,-543"/>
<text text-anchor="middle" x="1246" y="-521.3" font-family="Times,serif" font-size="14.00">ex:qc_QC.Met1</text>
</a>
</g>
</g>
<!-- n4&#45;&gt;n8 -->
<g id="edge16" class="edge">
<title>n4&#45;&gt;n8</title>
<path fill="none" stroke="darkgreen" d="M1036.1,-417.15C1073.36,-427.48 1123.69,-443.68 1165,-465 1183.91,-474.76 1203.25,-488.67 1218.28,-500.53"/>
<polygon fill="darkgreen" stroke="darkgreen" points="1216.18,-503.33 1226.16,-506.87 1220.57,-497.87 1216.18,-503.33"/>
<text text-anchor="middle" x="1227" y="-468" font-family="Times,serif" font-size="10.00" fill="darkgreen">wasGeneratedBy</text>
</g>
<!-- n9 -->
<g id="node17" class="node">
<title>n9</title>
<g id="a_node17"><a xlink:href="https://sqaaas.eosc-synergy.eu/qc_QC.Sec1" xlink:title="ex:qc_QC.Sec1">
<polygon fill="#9fb1fc" stroke="#0000ff" points="1453,-543 1331,-543 1331,-507 1453,-507 1453,-543"/>
<text text-anchor="middle" x="1392" y="-521.3" font-family="Times,serif" font-size="14.00">ex:qc_QC.Sec1</text>
</a>
</g>
</g>
<!-- n4&#45;&gt;n9 -->
<g id="edge17" class="edge">
<title>n4&#45;&gt;n9</title>
<path fill="none" stroke="darkgreen" d="M1032.1,-417.71C1066.12,-426.88 1112.57,-438.73 1154,-447 1207.32,-457.64 1223.18,-448.55 1275,-465 1303.2,-473.95 1332.95,-489.04 1355.4,-501.72"/>
<polygon fill="darkgreen" stroke="darkgreen" points="1353.82,-504.85 1364.23,-506.8 1357.31,-498.78 1353.82,-504.85"/>
<text text-anchor="middle" x="1345" y="-468" font-family="Times,serif" font-size="10.00" fill="darkgreen">wasGeneratedBy</text>
</g>
<!-- n10 -->
<g id="node19" class="node">
<title>n10</title>
<g id="a_node19"><a xlink:href="https://sqaaas.eosc-synergy.eu/qc_QC.Sty1" xlink:title="ex:qc_QC.Sty1">
<polygon fill="#9fb1fc" stroke="#0000ff" points="654,-543 534,-543 534,-507 654,-507 654,-543"/>
<text text-anchor="middle" x="594" y="-521.3" font-family="Times,serif" font-size="14.00">ex:qc_QC.Sty1</text>
</a>
</g>
</g>
<!-- n4&#45;&gt;n10 -->
<g id="edge18" class="edge">
<title>n4&#45;&gt;n10</title>
<path fill="none" stroke="darkgreen" d="M952.16,-419.97C932.37,-429.46 905.8,-440.83 881,-447 793.53,-468.77 763.74,-434.28 679,-465 657.43,-472.82 636.22,-487.53 620.39,-500.3"/>
<polygon fill="darkgreen" stroke="darkgreen" points="618.07,-497.67 612.62,-506.75 622.55,-503.05 618.07,-497.67"/>
<text text-anchor="middle" x="723" y="-468" font-family="Times,serif" font-size="10.00" fill="darkgreen">wasGeneratedBy</text>
</g>
<!-- n11 -->
<g id="node21" class="node">
<title>n11</title>
<g id="a_node21"><a xlink:href="https://sqaaas.eosc-synergy.eu/qc_QC.Uni1" xlink:title="ex:qc_QC.Uni1">
<polygon fill="#9fb1fc" stroke="#0000ff" points="1156,-543 1034,-543 1034,-507 1156,-507 1156,-543"/>
<text text-anchor="middle" x="1095" y="-521.3" font-family="Times,serif" font-size="14.00">ex:qc_QC.Uni1</text>
</a>
</g>
</g>
<!-- n4&#45;&gt;n11 -->
<g id="edge19" class="edge">
<title>n4&#45;&gt;n11</title>
<path fill="none" stroke="darkgreen" d="M1011.5,-420.08C1028.93,-431.01 1050.73,-446.76 1066,-465 1074.02,-474.58 1080.49,-486.76 1085.26,-497.56"/>
<polygon fill="darkgreen" stroke="darkgreen" points="1082.1,-499.08 1089.16,-506.98 1088.57,-496.4 1082.1,-499.08"/>
<text text-anchor="middle" x="1117" y="-468" font-family="Times,serif" font-size="10.00" fill="darkgreen">wasGeneratedBy</text>
</g>
<!-- n12 -->
<g id="node23" class="node">
<title>n12</title>
<g id="a_node23"><a xlink:href="https://sqaaas.eosc-synergy.eu/qc_QC.Ver1" xlink:title="ex:qc_QC.Ver1">
<polygon fill="#9fb1fc" stroke="#0000ff" points="1593,-543 1473,-543 1473,-507 1593,-507 1593,-543"/>
<text text-anchor="middle" x="1533" y="-521.3" font-family="Times,serif" font-size="14.00">ex:qc_QC.Ver1</text>
</a>
</g>
</g>
<!-- n4&#45;&gt;n12 -->
<g id="edge20" class="edge">
<title>n4&#45;&gt;n12</title>
<path fill="none" stroke="darkgreen" d="M1029.73,-418.05C1063.85,-427.75 1111.39,-440.09 1154,-447 1259.15,-464.05 1289.44,-440.04 1393,-465 1427.52,-473.32 1464.45,-489.21 1491.71,-502.4"/>
<polygon fill="darkgreen" stroke="darkgreen" points="1490.41,-505.66 1500.93,-506.94 1493.5,-499.38 1490.41,-505.66"/>
<text text-anchor="middle" x="1472" y="-468" font-family="Times,serif" font-size="10.00" fill="darkgreen">wasGeneratedBy</text>
</g>
<!-- b1 -->
<g id="node25" class="node">
<title>b1</title>
<ellipse fill="gray" stroke="gray" cx="967" cy="-525" rx="1.8" ry="1.8"/>
</g>
<!-- n4&#45;&gt;b1 -->
<g id="edge22" class="edge">
<title>n4&#45;&gt;b1</title>
<path fill="none" stroke="black" d="M980.71,-421.19C976.59,-452.04 968.28,-514.39 967.13,-523"/>
<text text-anchor="middle" x="1018" y="-468" font-family="Times,serif" font-size="10.00">wasDerivedFrom</text>
</g>
<!-- ann4 -->
<g id="node8" class="node">
<title>ann4</title>
<polygon fill="none" stroke="gray" points="1214.5,-322 557.5,-322 557.5,-234 1220.5,-234 1220.5,-316 1214.5,-322"/>
<polyline fill="none" stroke="gray" points="1214.5,-322 1214.5,-316 "/>
<polyline fill="none" stroke="gray" points="1220.5,-316 1214.5,-316 "/>
<g id="a_node8_14"><a xlink:href="http://www.w3.org/ns/prov#type" xlink:title="&lt;TABLE&gt;">
<text text-anchor="start" x="568" y="-308" font-family="Times,serif" font-size="10.00">prov:type</text>
</a>
</g>
<text text-anchor="start" x="663" y="-308" font-family="Times,serif" font-size="10.00">document</text>
<g id="a_node8_15"><a xlink:href="https://sqaaas.eosc-synergy.eu/branch_name" xlink:title="&lt;TABLE&gt;">
<text text-anchor="start" x="568" y="-295" font-family="Times,serif" font-size="10.00">ex:branch_name</text>
</a>
</g>
<text text-anchor="start" x="663" y="-295" font-family="Times,serif" font-size="10.00">main</text>
<g id="a_node8_16"><a xlink:href="https://sqaaas.eosc-synergy.eu/commit_date" xlink:title="&lt;TABLE&gt;">
<text text-anchor="start" x="568" y="-282" font-family="Times,serif" font-size="10.00">ex:commit_date</text>
</a>
</g>
<text text-anchor="start" x="663" y="-282" font-family="Times,serif" font-size="10.00">2025&#45;03&#45;26T15:41:12.566713041Z</text>
<g id="a_node8_17"><a xlink:href="https://sqaaas.eosc-synergy.eu/commit_id" xlink:title="&lt;TABLE&gt;">
<text text-anchor="start" x="568" y="-269" font-family="Times,serif" font-size="10.00">ex:commit_id</text>
</a>
</g>
<text text-anchor="start" x="663" y="-269" font-family="Times,serif" font-size="10.00">d09bb91986533113840e908bfabe369e58feaeda</text>
<g id="a_node8_18"><a xlink:href="https://sqaaas.eosc-synergy.eu/report_json_url" xlink:title="&lt;TABLE&gt;">
<text text-anchor="start" x="568" y="-256" font-family="Times,serif" font-size="10.00">ex:report_json_url</text>
</a>
</g>
<text text-anchor="start" x="663" y="-256" font-family="Times,serif" font-size="10.00">https://raw.githubusercontent.com/eosc&#45;synergy/itwinai.assess.sqaaas/main/.report/assessment_output.json</text>
<g id="a_node8_19"><a xlink:href="https://sqaaas.eosc-synergy.eu/version" xlink:title="&lt;TABLE&gt;">
<text text-anchor="start" x="568" y="-243" font-family="Times,serif" font-size="10.00">ex:version</text>
</a>
</g>
<text text-anchor="start" x="663" y="-243" font-family="Times,serif" font-size="10.00">3.5.0</text>
</g>
<!-- ann4&#45;&gt;n4 -->
<g id="edge4" class="edge">
<title>ann4&#45;&gt;n4</title>
<path fill="none" stroke="gray" stroke-dasharray="5,2" d="M921.88,-322.02C938.5,-343.77 957.72,-368.93 970.11,-385.13"/>
</g>
<!-- ann5 -->
<g id="node10" class="node">
<title>ann5</title>
<polygon fill="none" stroke="gray" points="288,-447 120,-447 120,-359 294,-359 294,-441 288,-447"/>
<polyline fill="none" stroke="gray" points="288,-447 288,-441 "/>
<polyline fill="none" stroke="gray" points="294,-441 288,-441 "/>
<g id="a_node10_20"><a xlink:href="http://www.w3.org/ns/prov#type" xlink:title="&lt;TABLE&gt;">
<text text-anchor="start" x="130" y="-433" font-family="Times,serif" font-size="10.00">prov:type</text>
</a>
</g>
<text text-anchor="start" x="247" y="-433" font-family="Times,serif" font-size="10.00">activity</text>
<g id="a_node10_21"><a xlink:href="https://sqaaas.eosc-synergy.eu/description" xlink:title="&lt;TABLE&gt;">
<text text-anchor="start" x="130" y="-420" font-family="Times,serif" font-size="10.00">ex:description</text>
</a>
</g>
<text text-anchor="start" x="247" y="-420" font-family="Times,serif" font-size="10.00">QC.Acc</text>
<g id="a_node10_22"><a xlink:href="https://sqaaas.eosc-synergy.eu/output" xlink:title="&lt;TABLE&gt;">
<text text-anchor="start" x="130" y="-407" font-family="Times,serif" font-size="10.00">ex:output</text>
</a>
</g>
<text text-anchor="start" x="247" y="-407" font-family="Times,serif" font-size="10.00">True</text>
<g id="a_node10_23"><a xlink:href="https://sqaaas.eosc-synergy.eu/percentage" xlink:title="&lt;TABLE&gt;">
<text text-anchor="start" x="130" y="-394" font-family="Times,serif" font-size="10.00">ex:percentage</text>
</a>
</g>
<text text-anchor="start" x="247" y="-394" font-family="Times,serif" font-size="10.00">100%</text>
<g id="a_node10_24"><a xlink:href="https://sqaaas.eosc-synergy.eu/success_subcriteria" xlink:title="&lt;TABLE&gt;">
<text text-anchor="start" x="130" y="-381" font-family="Times,serif" font-size="10.00">ex:success_subcriteria</text>
</a>
</g>
<text text-anchor="start" x="247" y="-381" font-family="Times,serif" font-size="10.00">1</text>
<g id="a_node10_25"><a xlink:href="https://sqaaas.eosc-synergy.eu/total_subcriteria" xlink:title="&lt;TABLE&gt;">
<text text-anchor="start" x="130" y="-368" font-family="Times,serif" font-size="10.00">ex:total_subcriteria</text>
</a>
</g>
<text text-anchor="start" x="247" y="-368" font-family="Times,serif" font-size="10.00">1</text>
</g>
<!-- ann5&#45;&gt;n5 -->
<g id="edge5" class="edge">
<title>ann5&#45;&gt;n5</title>
<path fill="none" stroke="gray" stroke-dasharray="5,2" d="M294.09,-446.14C337.35,-467.07 387.22,-491.2 419.83,-506.98"/>
</g>
<!-- ann6 -->
<g id="node12" class="node">
<title>ann6</title>
<polygon fill="none" stroke="gray" points="674,-447 504,-447 504,-359 680,-359 680,-441 674,-447"/>
<polyline fill="none" stroke="gray" points="674,-447 674,-441 "/>
<polyline fill="none" stroke="gray" points="680,-441 674,-441 "/>
<g id="a_node12_26"><a xlink:href="http://www.w3.org/ns/prov#type" xlink:title="&lt;TABLE&gt;">
<text text-anchor="start" x="514" y="-433" font-family="Times,serif" font-size="10.00">prov:type</text>
</a>
</g>
<text text-anchor="start" x="631" y="-433" font-family="Times,serif" font-size="10.00">activity</text>
<g id="a_node12_27"><a xlink:href="https://sqaaas.eosc-synergy.eu/description" xlink:title="&lt;TABLE&gt;">
<text text-anchor="start" x="514" y="-420" font-family="Times,serif" font-size="10.00">ex:description</text>
</a>
</g>
<text text-anchor="start" x="631" y="-420" font-family="Times,serif" font-size="10.00">QC.Doc</text>
<g id="a_node12_28"><a xlink:href="https://sqaaas.eosc-synergy.eu/output" xlink:title="&lt;TABLE&gt;">
<text text-anchor="start" x="514" y="-407" font-family="Times,serif" font-size="10.00">ex:output</text>
</a>
</g>
<text text-anchor="start" x="631" y="-407" font-family="Times,serif" font-size="10.00">True</text>
<g id="a_node12_29"><a xlink:href="https://sqaaas.eosc-synergy.eu/percentage" xlink:title="&lt;TABLE&gt;">
<text text-anchor="start" x="514" y="-394" font-family="Times,serif" font-size="10.00">ex:percentage</text>
</a>
</g>
<text text-anchor="start" x="631" y="-394" font-family="Times,serif" font-size="10.00">80%</text>
<g id="a_node12_30"><a xlink:href="https://sqaaas.eosc-synergy.eu/success_subcriteria" xlink:title="&lt;TABLE&gt;">
<text text-anchor="start" x="514" y="-381" font-family="Times,serif" font-size="10.00">ex:success_subcriteria</text>
</a>
</g>
<text text-anchor="start" x="631" y="-381" font-family="Times,serif" font-size="10.00">4</text>
<g id="a_node12_31"><a xlink:href="https://sqaaas.eosc-synergy.eu/total_subcriteria" xlink:title="&lt;TABLE&gt;">
<text text-anchor="start" x="514" y="-368" font-family="Times,serif" font-size="10.00">ex:total_subcriteria</text>
</a>
</g>
<text text-anchor="start" x="631" y="-368" font-family="Times,serif" font-size="10.00">5</text>
</g>
<!-- ann6&#45;&gt;n6 -->
<g id="edge6" class="edge">
<title>ann6&#45;&gt;n6</title>
<path fill="none" stroke="gray" stroke-dasharray="5,2" d="M592.82,-447.02C594.92,-457.52 598.88,-468.02 606,-476 623.69,-495.82 638.07,-484.82 663,-494 673.67,-497.93 685.09,-502.56 695.57,-506.99"/>
</g>
<!-- ann7 -->
<g id="node14" class="node">
<title>ann7</title>
<polygon fill="none" stroke="gray" points="866,-447 698,-447 698,-359 872,-359 872,-441 866,-447"/>
<polyline fill="none" stroke="gray" points="866,-447 866,-441 "/>
<polyline fill="none" stroke="gray" points="872,-441 866,-441 "/>
<g id="a_node14_32"><a xlink:href="http://www.w3.org/ns/prov#type" xlink:title="&lt;TABLE&gt;">
<text text-anchor="start" x="708" y="-433" font-family="Times,serif" font-size="10.00">prov:type</text>
</a>
</g>
<text text-anchor="start" x="825" y="-433" font-family="Times,serif" font-size="10.00">activity</text>
<g id="a_node14_33"><a xlink:href="https://sqaaas.eosc-synergy.eu/description" xlink:title="&lt;TABLE&gt;">
<text text-anchor="start" x="708" y="-420" font-family="Times,serif" font-size="10.00">ex:description</text>
</a>
</g>
<text text-anchor="start" x="825" y="-420" font-family="Times,serif" font-size="10.00">QC.Lic</text>
<g id="a_node14_34"><a xlink:href="https://sqaaas.eosc-synergy.eu/output" xlink:title="&lt;TABLE&gt;">
<text text-anchor="start" x="708" y="-407" font-family="Times,serif" font-size="10.00">ex:output</text>
</a>
</g>
<text text-anchor="start" x="825" y="-407" font-family="Times,serif" font-size="10.00">True</text>
<g id="a_node14_35"><a xlink:href="https://sqaaas.eosc-synergy.eu/percentage" xlink:title="&lt;TABLE&gt;">
<text text-anchor="start" x="708" y="-394" font-family="Times,serif" font-size="10.00">ex:percentage</text>
</a>
</g>
<text text-anchor="start" x="825" y="-394" font-family="Times,serif" font-size="10.00">100%</text>
<g id="a_node14_36"><a xlink:href="https://sqaaas.eosc-synergy.eu/success_subcriteria" xlink:title="&lt;TABLE&gt;">
<text text-anchor="start" x="708" y="-381" font-family="Times,serif" font-size="10.00">ex:success_subcriteria</text>
</a>
</g>
<text text-anchor="start" x="825" y="-381" font-family="Times,serif" font-size="10.00">4</text>
<g id="a_node14_37"><a xlink:href="https://sqaaas.eosc-synergy.eu/total_subcriteria" xlink:title="&lt;TABLE&gt;">
<text text-anchor="start" x="708" y="-368" font-family="Times,serif" font-size="10.00">ex:total_subcriteria</text>
</a>
</g>
<text text-anchor="start" x="825" y="-368" font-family="Times,serif" font-size="10.00">4</text>
</g>
<!-- ann7&#45;&gt;n7 -->
<g id="edge7" class="edge">
<title>ann7&#45;&gt;n7</title>
<path fill="none" stroke="gray" stroke-dasharray="5,2" d="M741.46,-447.23C736.48,-456.95 735.27,-467.04 742,-476 759.23,-498.94 777.04,-484.19 804,-494 814.43,-497.79 825.52,-502.43 835.66,-506.9"/>
</g>
<!-- ann8 -->
<g id="node16" class="node">
<title>ann8</title>
<polygon fill="none" stroke="gray" points="1526.5,-447 1355.5,-447 1355.5,-359 1532.5,-359 1532.5,-441 1526.5,-447"/>
<polyline fill="none" stroke="gray" points="1526.5,-447 1526.5,-441 "/>
<polyline fill="none" stroke="gray" points="1532.5,-441 1526.5,-441 "/>
<g id="a_node16_38"><a xlink:href="http://www.w3.org/ns/prov#type" xlink:title="&lt;TABLE&gt;">
<text text-anchor="start" x="1366" y="-433" font-family="Times,serif" font-size="10.00">prov:type</text>
</a>
</g>
<text text-anchor="start" x="1483" y="-433" font-family="Times,serif" font-size="10.00">activity</text>
<g id="a_node16_39"><a xlink:href="https://sqaaas.eosc-synergy.eu/description" xlink:title="&lt;TABLE&gt;">
<text text-anchor="start" x="1366" y="-420" font-family="Times,serif" font-size="10.00">ex:description</text>
</a>
</g>
<text text-anchor="start" x="1483" y="-420" font-family="Times,serif" font-size="10.00">QC.Met</text>
<g id="a_node16_40"><a xlink:href="https://sqaaas.eosc-synergy.eu/output" xlink:title="&lt;TABLE&gt;">
<text text-anchor="start" x="1366" y="-407" font-family="Times,serif" font-size="10.00">ex:output</text>
</a>
</g>
<text text-anchor="start" x="1483" y="-407" font-family="Times,serif" font-size="10.00">True</text>
<g id="a_node16_41"><a xlink:href="https://sqaaas.eosc-synergy.eu/percentage" xlink:title="&lt;TABLE&gt;">
<text text-anchor="start" x="1366" y="-394" font-family="Times,serif" font-size="10.00">ex:percentage</text>
</a>
</g>
<text text-anchor="start" x="1483" y="-394" font-family="Times,serif" font-size="10.00">100%</text>
<g id="a_node16_42"><a xlink:href="https://sqaaas.eosc-synergy.eu/success_subcriteria" xlink:title="&lt;TABLE&gt;">
<text text-anchor="start" x="1366" y="-381" font-family="Times,serif" font-size="10.00">ex:success_subcriteria</text>
</a>
</g>
<text text-anchor="start" x="1483" y="-381" font-family="Times,serif" font-size="10.00">1</text>
<g id="a_node16_43"><a xlink:href="https://sqaaas.eosc-synergy.eu/total_subcriteria" xlink:title="&lt;TABLE&gt;">
<text text-anchor="start" x="1366" y="-368" font-family="Times,serif" font-size="10.00">ex:total_subcriteria</text>
</a>
</g>
<text text-anchor="start" x="1483" y="-368" font-family="Times,serif" font-size="10.00">1</text>
</g>
<!-- ann8&#45;&gt;n8 -->
<g id="edge8" class="edge">
<title>ann8&#45;&gt;n8</title>
<path fill="none" stroke="gray" stroke-dasharray="5,2" d="M1443.99,-447.35C1441.9,-457.98 1437.76,-468.45 1430,-476 1395.13,-509.94 1368.89,-480.99 1322,-494 1309.56,-497.45 1296.36,-502.24 1284.52,-506.98"/>
</g>
<!-- ann9 -->
<g id="node18" class="node">
<title>ann9</title>
<polygon fill="none" stroke="gray" points="1719,-447 1551,-447 1551,-359 1725,-359 1725,-441 1719,-447"/>
<polyline fill="none" stroke="gray" points="1719,-447 1719,-441 "/>
<polyline fill="none" stroke="gray" points="1725,-441 1719,-441 "/>
<g id="a_node18_44"><a xlink:href="http://www.w3.org/ns/prov#type" xlink:title="&lt;TABLE&gt;">
<text text-anchor="start" x="1561" y="-433" font-family="Times,serif" font-size="10.00">prov:type</text>
</a>
</g>
<text text-anchor="start" x="1678" y="-433" font-family="Times,serif" font-size="10.00">activity</text>
<g id="a_node18_45"><a xlink:href="https://sqaaas.eosc-synergy.eu/description" xlink:title="&lt;TABLE&gt;">
<text text-anchor="start" x="1561" y="-420" font-family="Times,serif" font-size="10.00">ex:description</text>
</a>
</g>
<text text-anchor="start" x="1678" y="-420" font-family="Times,serif" font-size="10.00">QC.Sec</text>
<g id="a_node18_46"><a xlink:href="https://sqaaas.eosc-synergy.eu/output" xlink:title="&lt;TABLE&gt;">
<text text-anchor="start" x="1561" y="-407" font-family="Times,serif" font-size="10.00">ex:output</text>
</a>
</g>
<text text-anchor="start" x="1678" y="-407" font-family="Times,serif" font-size="10.00">True</text>
<g id="a_node18_47"><a xlink:href="https://sqaaas.eosc-synergy.eu/percentage" xlink:title="&lt;TABLE&gt;">
<text text-anchor="start" x="1561" y="-394" font-family="Times,serif" font-size="10.00">ex:percentage</text>
</a>
</g>
<text text-anchor="start" x="1678" y="-394" font-family="Times,serif" font-size="10.00">100%</text>
<g id="a_node18_48"><a xlink:href="https://sqaaas.eosc-synergy.eu/success_subcriteria" xlink:title="&lt;TABLE&gt;">
<text text-anchor="start" x="1561" y="-381" font-family="Times,serif" font-size="10.00">ex:success_subcriteria</text>
</a>
</g>
<text text-anchor="start" x="1678" y="-381" font-family="Times,serif" font-size="10.00">1</text>
<g id="a_node18_49"><a xlink:href="https://sqaaas.eosc-synergy.eu/total_subcriteria" xlink:title="&lt;TABLE&gt;">
<text text-anchor="start" x="1561" y="-368" font-family="Times,serif" font-size="10.00">ex:total_subcriteria</text>
</a>
</g>
<text text-anchor="start" x="1678" y="-368" font-family="Times,serif" font-size="10.00">1</text>
</g>
<!-- ann9&#45;&gt;n9 -->
<g id="edge9" class="edge">
<title>ann9&#45;&gt;n9</title>
<path fill="none" stroke="gray" stroke-dasharray="5,2" d="M1621.76,-447.17C1615.61,-458.2 1607.49,-468.92 1597,-476 1547.56,-509.38 1521.57,-478.4 1464,-494 1451.98,-497.26 1439.29,-502.05 1427.98,-506.85"/>
</g>
<!-- ann10 -->
<g id="node20" class="node">
<title>ann10</title>
<polygon fill="none" stroke="gray" points="480,-447 312,-447 312,-359 486,-359 486,-441 480,-447"/>
<polyline fill="none" stroke="gray" points="480,-447 480,-441 "/>
<polyline fill="none" stroke="gray" points="486,-441 480,-441 "/>
<g id="a_node20_50"><a xlink:href="http://www.w3.org/ns/prov#type" xlink:title="&lt;TABLE&gt;">
<text text-anchor="start" x="322" y="-433" font-family="Times,serif" font-size="10.00">prov:type</text>
</a>
</g>
<text text-anchor="start" x="439" y="-433" font-family="Times,serif" font-size="10.00">activity</text>
<g id="a_node20_51"><a xlink:href="https://sqaaas.eosc-synergy.eu/description" xlink:title="&lt;TABLE&gt;">
<text text-anchor="start" x="322" y="-420" font-family="Times,serif" font-size="10.00">ex:description</text>
</a>
</g>
<text text-anchor="start" x="439" y="-420" font-family="Times,serif" font-size="10.00">QC.Sty</text>
<g id="a_node20_52"><a xlink:href="https://sqaaas.eosc-synergy.eu/output" xlink:title="&lt;TABLE&gt;">
<text text-anchor="start" x="322" y="-407" font-family="Times,serif" font-size="10.00">ex:output</text>
</a>
</g>
<text text-anchor="start" x="439" y="-407" font-family="Times,serif" font-size="10.00">False</text>
<g id="a_node20_53"><a xlink:href="https://sqaaas.eosc-synergy.eu/percentage" xlink:title="&lt;TABLE&gt;">
<text text-anchor="start" x="322" y="-394" font-family="Times,serif" font-size="10.00">ex:percentage</text>
</a>
</g>
<text text-anchor="start" x="439" y="-394" font-family="Times,serif" font-size="10.00">0%</text>
<g id="a_node20_54"><a xlink:href="https://sqaaas.eosc-synergy.eu/success_subcriteria" xlink:title="&lt;TABLE&gt;">
<text text-anchor="start" x="322" y="-381" font-family="Times,serif" font-size="10.00">ex:success_subcriteria</text>
</a>
</g>
<text text-anchor="start" x="439" y="-381" font-family="Times,serif" font-size="10.00">0</text>
<g id="a_node20_55"><a xlink:href="https://sqaaas.eosc-synergy.eu/total_subcriteria" xlink:title="&lt;TABLE&gt;">
<text text-anchor="start" x="322" y="-368" font-family="Times,serif" font-size="10.00">ex:total_subcriteria</text>
</a>
</g>
<text text-anchor="start" x="439" y="-368" font-family="Times,serif" font-size="10.00">1</text>
</g>
<!-- ann10&#45;&gt;n10 -->
<g id="edge10" class="edge">
<title>ann10&#45;&gt;n10</title>
<path fill="none" stroke="gray" stroke-dasharray="5,2" d="M422.18,-447.29C429.77,-458.05 439.1,-468.6 450,-476 478,-495.02 491.89,-483.3 524,-494 535.04,-497.68 546.76,-502.37 557.39,-506.95"/>
</g>
<!-- ann11 -->
<g id="node22" class="node">
<title>ann11</title>
<polygon fill="none" stroke="gray" points="1331,-447 1163,-447 1163,-359 1337,-359 1337,-441 1331,-447"/>
<polyline fill="none" stroke="gray" points="1331,-447 1331,-441 "/>
<polyline fill="none" stroke="gray" points="1337,-441 1331,-441 "/>
<g id="a_node22_56"><a xlink:href="http://www.w3.org/ns/prov#type" xlink:title="&lt;TABLE&gt;">
<text text-anchor="start" x="1173" y="-433" font-family="Times,serif" font-size="10.00">prov:type</text>
</a>
</g>
<text text-anchor="start" x="1290" y="-433" font-family="Times,serif" font-size="10.00">activity</text>
<g id="a_node22_57"><a xlink:href="https://sqaaas.eosc-synergy.eu/description" xlink:title="&lt;TABLE&gt;">
<text text-anchor="start" x="1173" y="-420" font-family="Times,serif" font-size="10.00">ex:description</text>
</a>
</g>
<text text-anchor="start" x="1290" y="-420" font-family="Times,serif" font-size="10.00">QC.Uni</text>
<g id="a_node22_58"><a xlink:href="https://sqaaas.eosc-synergy.eu/output" xlink:title="&lt;TABLE&gt;">
<text text-anchor="start" x="1173" y="-407" font-family="Times,serif" font-size="10.00">ex:output</text>
</a>
</g>
<text text-anchor="start" x="1290" y="-407" font-family="Times,serif" font-size="10.00">False</text>
<g id="a_node22_59"><a xlink:href="https://sqaaas.eosc-synergy.eu/percentage" xlink:title="&lt;TABLE&gt;">
<text text-anchor="start" x="1173" y="-394" font-family="Times,serif" font-size="10.00">ex:percentage</text>
</a>
</g>
<text text-anchor="start" x="1290" y="-394" font-family="Times,serif" font-size="10.00">0%</text>
<g id="a_node22_60"><a xlink:href="https://sqaaas.eosc-synergy.eu/success_subcriteria" xlink:title="&lt;TABLE&gt;">
<text text-anchor="start" x="1173" y="-381" font-family="Times,serif" font-size="10.00">ex:success_subcriteria</text>
</a>
</g>
<text text-anchor="start" x="1290" y="-381" font-family="Times,serif" font-size="10.00">0</text>
<g id="a_node22_61"><a xlink:href="https://sqaaas.eosc-synergy.eu/total_subcriteria" xlink:title="&lt;TABLE&gt;">
<text text-anchor="start" x="1173" y="-368" font-family="Times,serif" font-size="10.00">ex:total_subcriteria</text>
</a>
</g>
<text text-anchor="start" x="1290" y="-368" font-family="Times,serif" font-size="10.00">1</text>
</g>
<!-- ann11&#45;&gt;n11 -->
<g id="edge11" class="edge">
<title>ann11&#45;&gt;n11</title>
<path fill="none" stroke="gray" stroke-dasharray="5,2" d="M1294.84,-447.08C1300.25,-457.01 1301.55,-467.23 1294,-476 1276.56,-496.28 1200.88,-487.27 1175,-494 1161.94,-497.4 1148.05,-502.17 1135.58,-506.91"/>
</g>
<!-- ann12 -->
<g id="node24" class="node">
<title>ann12</title>
<polygon fill="none" stroke="gray" points="1911,-447 1743,-447 1743,-359 1917,-359 1917,-441 1911,-447"/>
<polyline fill="none" stroke="gray" points="1911,-447 1911,-441 "/>
<polyline fill="none" stroke="gray" points="1917,-441 1911,-441 "/>
<g id="a_node24_62"><a xlink:href="http://www.w3.org/ns/prov#type" xlink:title="&lt;TABLE&gt;">
<text text-anchor="start" x="1753" y="-433" font-family="Times,serif" font-size="10.00">prov:type</text>
</a>
</g>
<text text-anchor="start" x="1870" y="-433" font-family="Times,serif" font-size="10.00">activity</text>
<g id="a_node24_63"><a xlink:href="https://sqaaas.eosc-synergy.eu/description" xlink:title="&lt;TABLE&gt;">
<text text-anchor="start" x="1753" y="-420" font-family="Times,serif" font-size="10.00">ex:description</text>
</a>
</g>
<text text-anchor="start" x="1870" y="-420" font-family="Times,serif" font-size="10.00">QC.Ver</text>
<g id="a_node24_64"><a xlink:href="https://sqaaas.eosc-synergy.eu/output" xlink:title="&lt;TABLE&gt;">
<text text-anchor="start" x="1753" y="-407" font-family="Times,serif" font-size="10.00">ex:output</text>
</a>
</g>
<text text-anchor="start" x="1870" y="-407" font-family="Times,serif" font-size="10.00">True</text>
<g id="a_node24_65"><a xlink:href="https://sqaaas.eosc-synergy.eu/percentage" xlink:title="&lt;TABLE&gt;">
<text text-anchor="start" x="1753" y="-394" font-family="Times,serif" font-size="10.00">ex:percentage</text>
</a>
</g>
<text text-anchor="start" x="1870" y="-394" font-family="Times,serif" font-size="10.00">33%</text>
<g id="a_node24_66"><a xlink:href="https://sqaaas.eosc-synergy.eu/success_subcriteria" xlink:title="&lt;TABLE&gt;">
<text text-anchor="start" x="1753" y="-381" font-family="Times,serif" font-size="10.00">ex:success_subcriteria</text>
</a>
</g>
<text text-anchor="start" x="1870" y="-381" font-family="Times,serif" font-size="10.00">1</text>
<g id="a_node24_67"><a xlink:href="https://sqaaas.eosc-synergy.eu/total_subcriteria" xlink:title="&lt;TABLE&gt;">
<text text-anchor="start" x="1753" y="-368" font-family="Times,serif" font-size="10.00">ex:total_subcriteria</text>
</a>
</g>
<text text-anchor="start" x="1870" y="-368" font-family="Times,serif" font-size="10.00">3</text>
</g>
<!-- ann12&#45;&gt;n12 -->
<g id="edge12" class="edge">
<title>ann12&#45;&gt;n12</title>
<path fill="none" stroke="gray" stroke-dasharray="5,2" d="M1742.97,-443.23C1739.95,-444.52 1736.95,-445.77 1734,-447 1681.54,-468.78 1620.52,-491.84 1579.59,-506.98"/>
</g>
<!-- b1&#45;&gt;n2 -->
<g id="edge23" class="edge">
<title>b1&#45;&gt;n2</title>
<path fill="none" stroke="black" d="M966.5,-526.96C964.17,-531.26 954.01,-548.92 940,-556 861.88,-595.5 614.78,-606.12 481.03,-608.97"/>
<polygon fill="black" stroke="black" points="480.74,-605.47 470.81,-609.17 480.88,-612.47 480.74,-605.47"/>
</g>
<!-- b2&#45;&gt;n4 -->
<g id="edge25" class="edge">
<title>b2&#45;&gt;n4</title>
<path fill="none" stroke="black" d="M1240.08,-280.26C1240.37,-285.93 1240.81,-309.41 1229,-322 1215.93,-335.93 1111.58,-366.68 1043.05,-385.74"/>
<polygon fill="black" stroke="black" points="1041.92,-382.42 1033.22,-388.46 1043.79,-389.17 1041.92,-382.42"/>
</g>
</g>
</svg>
